<?xml version="1.0" encoding="utf-8"?>
<!-- Generator: Adobe Illustrator 25.2.3, SVG Export Plug-In . SVG Version: 6.00 Build 0)  -->
<svg version="1.1" id="Layer_2_1_" xmlns="http://www.w3.org/2000/svg" xmlns:xlink="http://www.w3.org/1999/xlink" x="0px" y="0px"
	 viewBox="0 0 393.9 320" style="enable-background:new 0 0 393.9 320;" xml:space="preserve">
<style type="text/css">
	.st0{fill:none;stroke:#000000;stroke-miterlimit:10;}
	.st1{fill:#FFFFFF;stroke:#000000;stroke-miterlimit:10;}
	.st2{stroke:#000000;stroke-miterlimit:10;}
	.st3{fill:#B8B7B5;stroke:#000000;stroke-miterlimit:10;}
</style>
<path class="st0" d="M233.5,292.1"/>
<path class="st0" d="M249.1,334"/>
<path class="st0" d="M-32.9,239.8"/>
<path class="st1" d="M134,280.2c0,0,27.3,10.6,44,13.6s40.8,2.4,55.6-1.7c16.7-1.5,30.7-8.6,39.7-11.1s26.9-12.2,42.2-25.7
	c9.8-6,25.1-24.8,30.4-34.8c5.3-10,8.2-19.2,9.4-33.1c1.2-13.9-2.9-31.1-3.3-36c-0.4-4.9,0.1-12-6-22.3c-6-10.3-10.3-12.4-10.3-12.4
	s10.1-23.9,10.8-36.4c0.7-12.5-0.8-33.4-0.8-33.4L303,69.6c-10.8,6-30.8,26.8-30.8,26.8s-26.3-13.7-37.3-15.8c-11-2-33.2-1.5-41-1.9
	c-7.8-0.4-20.1-1.5-30.4,0.3c-10.3,1.8-32.2,7.7-32.2,7.7l1.3-21.5c-1.6-8.9-9.8-12.7-15.8-20.6c-6-7.9-32.8-24.7-32.8-24.7
	L70.6,58.8c-4.3,12.6-11,24.3-6.6,37.7s17.7,25.3,17.7,25.3s-12.1,19.9-16.2,29.3c-4.1,9.4-4,28-3.2,39.2
	c0.8,11.2,13.1,36.1,16.2,39.8s19.9,24.2,25.3,28L134,280.2"/>
<path class="st0" d="M126.4,270.4"/>
<ellipse transform="matrix(6.784115e-02 -0.9977 0.9977 6.784115e-02 -11.0456 396.1898)" class="st2" cx="206.5" cy="204" rx="16.3" ry="28.1"/>
<ellipse transform="matrix(0.9848 -0.1736 0.1736 0.9848 -31.5704 41.6286)" class="st1" cx="222.1" cy="201.2" rx="4.1" ry="4.1"/>
<path class="st0" d="M270.4,200.8c69.5-19.9,113.4-21,122.1,0.5"/>
<path class="st0" d="M265.9,211.9c43.9-9.6,88-9.8,116.9,18"/>
<path class="st0" d="M266.6,226.3c45.1-8,86.7-5,103.5,30.9"/>
<path class="st0" d="M130.3,199.9c-59.9-27.5-96.2-31-116.2-3.5"/>
<path class="st0" d="M134.3,212.6c-61.9-18.3-100.5-14.2-118.7,24.1"/>
<ellipse transform="matrix(0.342 -0.9397 0.9397 0.342 -41.2121 220.789)" class="st0" cx="137.1" cy="139.8" rx="11.7" ry="35.6"/>
<ellipse transform="matrix(0.9969 -7.898105e-02 7.898105e-02 0.9969 -11.8021 22.6363)" class="st0" cx="280.3" cy="160.5" rx="35.6" ry="11.7"/>
<ellipse transform="matrix(0.9848 -0.1736 0.1736 0.9848 -22.2287 26.0349)" class="st2" cx="137.7" cy="140.1" rx="12" ry="12"/>
<ellipse transform="matrix(0.9848 -0.1736 0.1736 0.9848 -22.0622 26.104)" class="st1" cx="138.2" cy="139.1" rx="4.3" ry="4.3"/>
<ellipse transform="matrix(0.9848 -0.1736 0.1736 0.9848 -23.6141 51.104)" class="st2" cx="280.3" cy="160.5" rx="12" ry="12"/>
<ellipse transform="matrix(0.9848 -0.1736 0.1736 0.9848 -23.6141 51.104)" class="st1" cx="280.3" cy="160.5" rx="4.3" ry="4.4"/>
<path class="st1" d="M200.6,227.4l-3.7,10.8c0,0,5.2,4,8.6,6c3.4,2,8.3,1.2,8.3,1.2"/>
<path class="st1" d="M176.8,241.8c0,0,2.7,1.4,9.8,0.2c7.1-1.2,10.3-3.7,10.3-3.7"/>
<path class="st3" d="M-17.4,242.6"/>
<path class="st0" d="M134,188.2C79.4,151.3,43.9,141,19.7,164.8"/>
<path class="st2" d="M116.8,90.7c0,0,2-9.9,0.9-16c-1.1-6.2-1.1-12.2-7.9-19.7L96.6,40.3l-6.8-6.7L84.4,43c0,0-3.4,10.1-4.4,16.7
	S78.6,70,80.5,75.4c2,5.5-6,6.3-0.4,13.8l9.7,13.1L116.8,90.7z"/>
<path class="st2" d="M290.3,97.2c0,0,2.8-2.6,7.8-10.4c16.5-9.9,9.6-5.3,13-7.6l17.5-10.5l11.1-8.8c0,0,3.4,6.5,2.4,13.3
	c-1,6.8,1.1,7.2-2,14.1l-6.3,13.8l-5.6,10.5"/>
</svg>
