<svg id="Layer_2" data-name="Layer 2" xmlns="http://www.w3.org/2000/svg" viewBox="0 0 408.95 156.31"><defs><style>.cls-1{fill:#585858;}</style></defs><path class="cls-1" d="M739.37,653.14l19.43-19.43L781.46,611l19.43-17.81-21.37-16L758.6,558.8,728,535l-24.72-23-11.18-9.48-5.62-2.38L681.1,499l-6.2-1.55-7.3-.61H656.74l-9.37.89-8.87,1.9-9.37,2.89-8.57,3.39-9.07,4.18-7.18,6.55H581.19l-33.73.63-16.24.94-9.53-.22-7.56,1.77-3.39,3.19L507.45,526l-2.59,5.88-.8,6.38.8,5.78,2.09,4.48,5.08,4,6.48.89,6.08,1.4,7.47.1,6.28,1.59,9.47,1.4,8,.4,7.48.5,9.86,1.89,8.68,1.2,7.07.29,7.18.6,7.67,2.49,5.88,2,6.48,2.49,4.88,3.39-10.06-1.8L604,569.48l-10.86-2.89-9.37-.5-13.66-.3-12,.1-13-1.09L534,563.5l-11.66-1.89-8-1.2L507,557.12l-3.79-4.38-3.88-4.39-1-3.89-1.3-5.18.5-4.78.1-4.19-.6-1.59-6.27-3-11.47-3.79-8.67-4.08-16.94-6.28-18.24-4.79-19.33-3.29-7.37.2-3.49,1.2-2.1,1.1L399,508.05l-2.49,2.23-1.6,1.3-3,2.79,2,3.29,2.59,2.49,3.48,3.19,5.59,3.58,6.27,3.29,5.19,3.79,6.37,4,5.88,4,8.18,4.79,8.37,4.58,9.67,6,10.26,5.78,11.26,6.28,11.46,6.78,11.36,6.57,14.65,6.78,14.55,7.28L541.53,601l14.15,5.08,10.17,2.74,6.08.85h5a29,29,0,0,0,7.24-.92l.72-.18,5.59-.5,3.35-.13a18.92,18.92,0,0,0,3.6-.5l5.6-1.37,5.68-1.39,9-1.4,6.78-.69,5.68-1.2h3.69l6.68-.1,7,.5,5.48,2.49,3.79.6,3.69,1.29,4.38.8,13.26,6.78L695,623.66,714.3,636Z" transform="translate(-391.94 -496.83)"/></svg>