<svg id="Layer_2" data-name="Layer 2" xmlns="http://www.w3.org/2000/svg" xmlns:xlink="http://www.w3.org/1999/xlink" viewBox="0 0 687.81 636.96"><defs><style>.cls-1,.cls-6{fill:#fff;}.cls-1,.cls-2{stroke:#000;}.cls-1,.cls-10,.cls-11,.cls-12,.cls-13,.cls-2,.cls-8,.cls-9{stroke-miterlimit:10;}.cls-10,.cls-11,.cls-12,.cls-13,.cls-2,.cls-7,.cls-8,.cls-9{fill:none;}.cls-3{fill:#010101;}.cls-4{fill:#101010;}.cls-5{fill:#afacad;}.cls-8{stroke:url(#linear-gradient);}.cls-9{stroke:url(#linear-gradient-2);}.cls-10{stroke:url(#linear-gradient-3);}.cls-11{stroke:url(#linear-gradient-4);}.cls-12{stroke:url(#linear-gradient-5);}.cls-13{stroke:url(#linear-gradient-6);}</style><linearGradient id="linear-gradient" x1="426.53" y1="480.37" x2="527.94" y2="480.37" gradientUnits="userSpaceOnUse"><stop offset="0" stop-color="#fff"/><stop offset="1"/></linearGradient><linearGradient id="linear-gradient-2" x1="421.88" y1="454.24" x2="523.43" y2="454.24" xlink:href="#linear-gradient"/><linearGradient id="linear-gradient-3" x1="408.02" y1="434.78" x2="501.89" y2="434.78" xlink:href="#linear-gradient"/><linearGradient id="linear-gradient-4" x1="495.41" y1="783.12" x2="589.28" y2="783.12" gradientTransform="matrix(-0.89, -0.7, 0.81, -0.72, 101.18, 1417.67)" xlink:href="#linear-gradient"/><linearGradient id="linear-gradient-5" x1="480.48" y1="771.51" x2="574.35" y2="771.51" gradientTransform="matrix(-0.99, -0.56, 0.69, -0.83, 244.18, 1429.15)" xlink:href="#linear-gradient"/><linearGradient id="linear-gradient-6" x1="450.59" y1="752" x2="544.46" y2="752" gradientTransform="matrix(-1.12, -0.16, 0.34, -1.03, 569.39, 1373.78)" xlink:href="#linear-gradient"/></defs><path class="cls-1" d="M385.1,514.91c-.13.82-.26,1.7-.39,2.63-1.58,11.12-3.49,29.35-5,39.18-3.31,12.71-7.84,30.52-9.93,38.11s-10.06,39.12-6,44.26,24.51,13,29.78,14.76S410.27,660,420.4,660s25.24-9.35,23.82-16-15.07-19.41-20.84-25.82-7.88-8.61-6.95-18.44,4.33-18.53,6.13-20.33h0" transform="translate(-286.48 -182.11)"/><path class="cls-2" d="M848.63,813.18s3.31-8.88,0-15.54S832,791,832,791" transform="translate(-286.48 -182.11)"/><path class="cls-2" d="M938.54,786.54" transform="translate(-286.48 -182.11)"/><path class="cls-2" d="M577,791" transform="translate(-286.48 -182.11)"/><path class="cls-1" d="M815.75,796.78s10.54.71,13.33,6.11a8.85,8.85,0,0,1,.59,1.42c2.18,6.72-2.87,13.68-9.92,14.13-4.33.28-9.1.19-11.76-1.12-4.61-2.28-14.15-8.89-17.59-11.31a11.23,11.23,0,0,0-2.78-1.42l-34-11.69-71.66-28.67c-.33-.13-.66-.24-1-.34l-55.48-16.31c-.42-.13-.83-.28-1.24-.45l-56.81-24.35-4.74-2-36-16.36a11.64,11.64,0,0,0-1.28-.49c-4.6-1.44-33-10.59-46-20.89-14.14-11.23-30-29.37-35.52-44.4l-22-59.31a9.59,9.59,0,0,1-.39-1.29L410.7,532.44q-.09-.39-.21-.78l-4.82-15.23a11.1,11.1,0,0,0-20.57-1.52l-7.79,16-24.08,43.77a12.64,12.64,0,0,0-.61,1.29L341.8,603.56a11.06,11.06,0,0,0-.62,5.89l1.26,7.55a11.13,11.13,0,0,0,2.15,4.94L354,634.17l5.87,7.83a11.11,11.11,0,0,1,1.05,11.63l-.53,1a11.1,11.1,0,0,1-9.93,6.14h-13a11.19,11.19,0,0,1-2.38-.26l-30.2-6.61a11.1,11.1,0,0,1-6.63-4.34l-9.15-12.67a11.12,11.12,0,0,1-1.91-8.57s7-36.67,7.21-37.25c0,0,14.1-38.65,14.1-40,0,0,.09-35,.26-35.81,0,0,8.74-42.36,10.35-45.57s17-35.56,20.79-41.44,21.89-36.38,26.24-40.42,17-18.52,33.31-30.74a180.75,180.75,0,0,1,32.37-19.22,11.11,11.11,0,0,0,3.5-3.29s4.74-7.31,15.27-22.39,24.22-35.85,32.74-46.92S503.6,239.17,521.38,227s42.7-22.23,55.79-27.15S608,187.2,612,186.79l41.42-4.18,73.92,8.57c.49.06,57.91,14.9,59,15.66,0,0,13.88,5.87,23.67,16.38a29.64,29.64,0,0,1,8.13,22.59s.17,5.65-1.26,8.09c0,0-4.2,7.85-7.09,12s-15.09,10.84-22.23,12.32-20.4-2.84-27.86-6.24-28.3-12.84-34.94-16.38-22-12.2-36.63-16.89-25.41-4.86-42.18-6.1-44.68,10.81-54.55,13.72-44.19,23.67-48.63,28.09S511,305.94,506.37,312.7a21,21,0,0,0-3.95,13s1.2,11.5,6.63,13.59l17.76,6.83c1,.37,30.3,22.33,30.3,22.33.38.29,25,24.37,25,24.37,1.07,1.05,17,39,17,39,.09.21,16.33,48.07,16.33,48.07.24.73,8.93,70.74,8.93,70.74l-11.17,1.16-32.82,9.6-9.26-11.27-9.34-8-14-9.06-20.73-10.53-1.64,14.27.19,14.29,5.87,26.53,3.35,11.52-8.14,11.29-5.63,16.82-2.88,20v19.25l3.67,15.9,8.83,18,10.73,13.68,18.28,14.68,24,9.76,20.66,4,11.39.93,16.64.07,23.91,0,17,0,9.19,0,42.18-13.32s23.06-10.49,28.86-20A31,31,0,0,0,758,681.27c-.65,3.93,2.69-12.51,3.33-33.3.28-9-.87-20-5.55-30s-13.28-24.47-17.76-32.19-18.87-26.64-18.87-26.64,5.55-24.43,0-34.42-15.54-21.09-15.54-21.09-13.87,11.69-21.09,18.87-22.2,28.86-22.2,28.86-27.44-2.3-44.49,0-35.43,10-35.43,10-6.43-11.3-22.76-22.21a189.93,189.93,0,0,0-30.52-16.65s-4.06,20.57,0,37.75,7.77,28.86,7.77,28.86-9.34,9.87-12.21,21.09a157.6,157.6,0,0,0-4.44,33.3c0,7.57,0,24.87,8.32,40s21.27,30.4,40.82,39.29,42.6,10.51,48.45,10.66,58,0,66.69,0,17.1,5.45,51.06,21.09,42.28,12.21,53.28,15.54,20.41,5.14,42.18,10,28.75,6.26,32.19,11.1,7.55,13.32,0,18.87-34.71,5.51-34.71,5.51" transform="translate(-286.48 -182.11)"/><path class="cls-2" d="M609,550.82" transform="translate(-286.48 -182.11)"/><path class="cls-2" d="M446.8,640" transform="translate(-286.48 -182.11)"/><path class="cls-2" d="M356.89,635.57" transform="translate(-286.48 -182.11)"/><polygon class="cls-3" points="262.39 394.19 255.76 374.86 250.79 354.98 267.92 360.5 281.72 370.99 287.25 377.62 262.39 394.19"/><polygon class="cls-4" points="394.41 366.57 402.69 349.45 416.5 339.44 423.69 335.64 428.66 345.58 431.97 358.84 428.66 372.1 394.41 366.57"/><path class="cls-3" d="M536,362.77l-29.31-4.61a10.57,10.57,0,0,0-11.36,6.27l-.11.28a14.2,14.2,0,0,0,5.33,17.52h0c8.33,5.39,5.28,18.3-4.59,19.33l-.41,0a9.5,9.5,0,0,0-6.41,3.33,5.27,5.27,0,0,0,5.56,8.44l28.09-8.47a4.69,4.69,0,0,1,4.92,7.53c-8,9.33-21.26,20.92-18.9,22.88a13.64,13.64,0,0,1,2,1.76l13,15.74a10.58,10.58,0,0,0,18.59-5c1.1-6.49,2.11-12.27,3.13-13.38l5.43-5.92a6.06,6.06,0,0,1,9,0l4,4.45a7.74,7.74,0,0,0,11,.44l1.47-1.39a9.63,9.63,0,0,0-.53-14.48l-3.77-3.07a5.35,5.35,0,0,1,4-9.46h0a.9.9,0,0,0,.81-1.44l-4.31-5.7A7.28,7.28,0,0,1,577,386.38h0l-12.92-12.6-9.15.42a8.27,8.27,0,0,1-6.62-2.82l-3.09-3.54A15.43,15.43,0,0,0,536,362.77Z" transform="translate(-286.48 -182.11)"/><path class="cls-5" d="M359.49,459.81l23.62,8.36a4.69,4.69,0,0,1,3.13,4.42v11.28a4.69,4.69,0,0,1-6.66,4.26h0a4.69,4.69,0,0,0-6.6,5l2.26,15.05a4.69,4.69,0,0,1-6.19,5.12l-8.64-3a4.68,4.68,0,0,0-5.32,1.65L345,525.7a4.69,4.69,0,0,1-7.65-.13l-7.37-10.81a4.69,4.69,0,0,1,.11-5.44l10.11-13.63a4.67,4.67,0,0,0-.79-6.42l-4.68-3.83a4.69,4.69,0,0,1,1.52-8.09l6.93-2.26a4.69,4.69,0,0,0,2-7.6l-6.36-7.06a4.69,4.69,0,0,1,2.12-7.63l8.87-2.7a4.69,4.69,0,0,1,5.9,3.31l.82,3.16A4.7,4.7,0,0,0,359.49,459.81Z" transform="translate(-286.48 -182.11)"/><path class="cls-5" d="M475.54,587l-9.92-1.74a7.83,7.83,0,0,1-2.51-14.53c8.43-4.73,19.85-7.44,27.08-7.44h0A18,18,0,0,1,503,568.59l7.4,7.47a12.86,12.86,0,0,1-1.85,19.64h0A12.54,12.54,0,0,0,503.12,607l2.56,7.2a3.72,3.72,0,0,1-5.5,4.39l-7.89-5a9.29,9.29,0,0,0-14.24,0l-4.47,5.33a5.53,5.53,0,0,1-9.72-2.85l15.21-15.67A8.11,8.11,0,0,0,475.54,587Z" transform="translate(-286.48 -182.11)"/><path class="cls-5" d="M533.64,219.23l-.59,17.32c-.16,4.7,4.11,8.65,9.54,8.84l16.3.55c6,.21,10.71-4.2,10.06-9.35l-.09-.71c-.76-6,5.65-10.66,12.33-9l5.19,1.25c6.65,1.61,13-3,12.34-9l-.77-6.69a7.42,7.42,0,0,1,.61-3.93l7.73-17.15a9.27,9.27,0,0,1,5.94-4.91h0" transform="translate(-286.48 -182.11)"/><path class="cls-3" d="M703.48,245l-4.05-24.36A2.33,2.33,0,0,1,701,218l21.92-7.31a2.34,2.34,0,0,1,.74-.12h19.61a2.35,2.35,0,0,1,2.3,1.91l4.37,23.71a2.33,2.33,0,0,0,3.59,1.52l11.33-7.54a2.34,2.34,0,0,1,3.63,2v18.63a2.33,2.33,0,0,1-3.54,2l-29-17.49a2.33,2.33,0,0,0-3.51,2.31l.69,5a2.33,2.33,0,0,1-3.47,2.34h0a2.33,2.33,0,0,0-2.77,3.71l16.74,16.14" transform="translate(-286.48 -182.11)"/><path class="cls-2" d="M329,660s4.52-3.43,0-13.92-13.91-10.5-13.91-10.5" transform="translate(-286.48 -182.11)"/><path class="cls-2" d="M353.36,662.21a20.58,20.58,0,0,0,0-14.43c-2.93-7.77-15.91-15.14-15.91-15.14" transform="translate(-286.48 -182.11)"/><path class="cls-2" d="M438,653.52s0-6.13-5.7-13.51S410,632.64,410,632.64" transform="translate(-286.48 -182.11)"/><path class="cls-2" d="M426.62,659.05s-.82-5.07-5.47-11.27-14.77-4.7-14.77-4.7" transform="translate(-286.48 -182.11)"/><path class="cls-3" d="M674.18,663.25c.28,1.8-10,10.9-21.28,12.64s-23.5-3.87-23.78-5.67c-1.12-7.21,8.07-14.62,20.51-16.55S673.06,656,674.18,663.25Z" transform="translate(-286.48 -182.11)"/><circle class="cls-6" cx="375.11" cy="481.25" r="3.37"/><line class="cls-7" x1="408.32" y1="471.41" x2="498.49" y2="415.15"/><line class="cls-7" x1="412.92" y1="481.25" x2="516.26" y2="443.28"/><line class="cls-8" x1="426.61" y1="489.34" x2="527.86" y2="471.41"/><line class="cls-9" x1="422.09" y1="477.88" x2="523.22" y2="430.6"/><line class="cls-10" x1="408.32" y1="471.41" x2="501.58" y2="398.15"/><line class="cls-11" x1="327.27" y1="483.4" x2="184.61" y2="470.48"/><line class="cls-12" x1="331.28" y1="489.25" x2="188.33" y2="498.31"/><line class="cls-13" x1="333.9" y1="491.81" x2="204.14" y2="552.48"/><ellipse class="cls-1" cx="583.13" cy="627.6" rx="27.34" ry="8.1" transform="translate(-410.2 -38.54) rotate(-12.7)"/><ellipse class="cls-3" cx="296.65" cy="445.49" rx="9.91" ry="7.29"/><circle class="cls-6" cx="301.88" cy="443.42" r="2.07"/><ellipse class="cls-1" cx="680.89" cy="600.98" rx="27.34" ry="8.1" transform="translate(-451.99 89.63) rotate(-20.18)"/><ellipse class="cls-3" cx="394.41" cy="418.87" rx="9.91" ry="7.29"/><circle class="cls-6" cx="399.34" cy="416.24" r="2.04"/><polyline class="cls-2" points="369.74 500.64 371.74 511.88 387.71 515.37"/><line class="cls-2" x1="371.74" y1="511.88" x2="360.1" y2="518.71"/><path class="cls-2" d="M847,814.2l.46-1.55a29.39,29.39,0,0,0,1.19-8.28v-.8A7.27,7.27,0,0,0,847.1,799h0a33.09,33.09,0,0,0-8.91-7.76l-1.81-1.09" transform="translate(-286.48 -182.11)"/><polyline class="cls-1" points="98.62 332.8 101.83 328.82 107.05 326.66 112.37 327.2 117.01 330.35 124.22 350.32 135.07 395.9"/><path class="cls-1" d="M745.8,707.91l26.14,12.47,33.39,14.92,38.72,13.85,40.49,14.92,34.1,13.49,9.34,4.15A66.67,66.67,0,0,0,941.33,786l2.45.52a36.87,36.87,0,0,0,25.3-10h0l4.69-11.9h0l0-.34A11.43,11.43,0,0,0,972,759.7,35.55,35.55,0,0,0,954.07,746l-26.16-9-66.74-18.12A150.69,150.69,0,0,1,846.36,714L821,704.26l-28.18-11.67c-8.41-3.49-26.46-11.67-33.78-17.09v1.67a41.72,41.72,0,0,1-13.21,30.74h0" transform="translate(-286.48 -182.11)"/><path class="cls-2" d="M934.56,765l1.41.51a30.13,30.13,0,0,1,18.55,19.43h0" transform="translate(-286.48 -182.11)"/><path class="cls-2" d="M969.08,776.5h0a33.26,33.26,0,0,0-15.87-17.06l-7.2-3.6" transform="translate(-286.48 -182.11)"/></svg>