<svg xmlns="http://www.w3.org/2000/svg" viewBox="0 0 391.2 477.24"><defs><style>.cls-1{fill:none;}.cls-1,.cls-2,.cls-3{stroke:#000;stroke-miterlimit:10;}.cls-2{fill:#8bfaff;}.cls-3{fill:#fff;}</style></defs><g id="Outline"><path class="cls-1" d="M675.5,855.5" transform="translate(-437 -385)"/><path class="cls-2" d="M827.7,733.12V385.5H437.5V729.44a16.84,16.84,0,0,0,.5,4.06h0a318.4,318.4,0,0,0,59.3,59.31C616.62,884.06,664.5,883.5,775,798.36c21.59-16.63,37.56-39.5,51.38-63h0a3.48,3.48,0,0,0,1.3-2.24Z" transform="translate(-437 -385)"/></g><g id="Left"><polygon class="cls-3" points="145 124.5 36 209.6 145 292 145 260.09 76.69 209.6 145 154.79 145 124.5"/></g><g id="Right"><polygon class="cls-3" points="256.5 128 364.5 210.05 256.5 289.5 256.5 258.73 324.18 210.05 256.5 157.21 256.5 128"/></g></svg>