<svg id="Layer_1" data-name="Layer 1" xmlns="http://www.w3.org/2000/svg" viewBox="0 0 411.41 411.41"><defs><style>.cls-1{fill:none;}.cls-1,.cls-2{stroke:#fff;stroke-miterlimit:10;stroke-width:10px;}.cls-2{fill:#736357;}</style></defs><path class="cls-1" d="M109.53,126.68h42a0,0,0,0,1,0,0V269.34a0,0,0,0,1,0,0h-42a23.06,23.06,0,0,1-23.06-23.06V149.74A23.06,23.06,0,0,1,109.53,126.68Z"/><path class="cls-1" d="M399.09,413.77,335.84,382.6V239.94l63.25-31.16a23.06,23.06,0,0,1,33.25,20.68V393.08A23.06,23.06,0,0,1,399.09,413.77Z" transform="translate(-184.33 -113.26)"/><path class="cls-1" d="M477.8,269.66q26.57,41.61,0,83.22" transform="translate(-184.33 -113.26)"/><path class="cls-2" d="M510,416.17" transform="translate(-184.33 -113.26)"/><path class="cls-1" d="M484.44,206.37c70.94,63.42,78.25,132.69,0,209.8" transform="translate(-184.33 -113.26)"/><circle class="cls-1" cx="205.7" cy="205.7" r="200.7"/><line class="cls-2" x1="106.53" y1="31.18" x2="304.95" y2="380.19"/></svg>