<svg id="Layer_5" data-name="Layer 5" xmlns="http://www.w3.org/2000/svg" xmlns:xlink="http://www.w3.org/1999/xlink" viewBox="0 0 377.88 362.85"><defs><style>.cls-1,.cls-3,.cls-6,.cls-7,.cls-8{fill:none;}.cls-1,.cls-2,.cls-5{stroke:#000;}.cls-1,.cls-2,.cls-3,.cls-4,.cls-5,.cls-6,.cls-7,.cls-8{stroke-miterlimit:10;}.cls-2,.cls-4{fill:#fff;}.cls-3,.cls-4{stroke:#001701;}.cls-6{stroke:url(#linear-gradient);}.cls-7{stroke:url(#linear-gradient-2);}.cls-8{stroke:url(#linear-gradient-3);}.cls-9{fill:#999;}</style><linearGradient id="linear-gradient" x1="1038.48" y1="486.81" x2="1063.96" y2="486.81" gradientTransform="matrix(1.78, 0.2, 0.5, 1.15, -1774.64, -591.02)" gradientUnits="userSpaceOnUse"><stop offset="0" stop-color="#fff"/><stop offset="1"/></linearGradient><linearGradient id="linear-gradient-2" x1="1031.5" y1="497.35" x2="1056.98" y2="497.35" gradientTransform="matrix(1.78, -0.25, 0.77, 0.99, -1900.65, -42.65)" xlink:href="#linear-gradient"/><linearGradient id="linear-gradient-3" x1="980.83" y1="774.12" x2="1006.31" y2="774.12" gradientTransform="matrix(1.38, -0.8, 0.96, 0.68, -1770.92, 472.66)" xlink:href="#linear-gradient"/></defs><path class="cls-1" d="M772.11,576.78l2.63,7.27a6.24,6.24,0,0,1,.14,3.8l-2,7.28a23.24,23.24,0,0,1-2.08,5.06l-5.32,9.57" transform="translate(-736.68 -314.59)"/><path class="cls-2" d="M782.53,630.81l2.32,3.24a62.32,62.32,0,0,0,6.7,7.9h0a1.65,1.65,0,0,0,2.44-.11l2.22-2.68.11-.89A16.18,16.18,0,0,0,793.5,627l-2.75-3.89" transform="translate(-736.68 -314.59)"/><path class="cls-3" d="M1019.18,610.4" transform="translate(-736.68 -314.59)"/><path class="cls-4" d="M934.29,585.92l9-2.32-9-18.29,13.25,24.6a82,82,0,0,0,12.12,16.94h0q2.7,2.91,5.64,5.59l19.83,18.1,24,24a16,16,0,0,1,3.06,4.28l5,10.19h16.62l2.65-4.36a7.42,7.42,0,0,0-1.89-9.8h0a16.7,16.7,0,0,0-10-3.35h-4.89l-43-72.16a17.68,17.68,0,0,1-2.31-11.57l1.57-10.85,4.32-21.83,8.94-1.69,9.62-1.53a47.69,47.69,0,0,0,22.61,17.41h0a44.72,44.72,0,0,0,4.44,1.37l2.44.62a68.32,68.32,0,0,0,16.91,2.12h0a50.47,50.47,0,0,0,20.71-4.45h0a16,16,0,0,0,5.73-4.33l1.68-2a6.14,6.14,0,0,1,6.53-1.91l2.45.25a20.26,20.26,0,0,0,7.51-.63h0a21.23,21.23,0,0,0,10.89-7.18l2.34-2.92,6.5-8.66,2.35-3.89a15.15,15.15,0,0,0,0-15.64l-2.36-3.92-.09-6.83.09-7.41.4-9.4a32.75,32.75,0,0,0-6.28-20.7h0a27.47,27.47,0,0,0-4.47-4.8h.07l-3.06-2.65a27,27,0,0,0-2.92-2.18l-1.71-1.1a23.23,23.23,0,0,1-2.52-1.88l-5.72-4.9-2.88-6.32-1.41-2.71a13.93,13.93,0,0,1-1.2-3.27l-1.48-6.35L1074.28,407l-.33,1.22h0l-3.93,5.73a22.14,22.14,0,0,0-3.72,15.1l.7,6-9.93-1.65-11.59,1.32,1.26-7.19a31.46,31.46,0,0,0-2.7-19.17h0a60.94,60.94,0,0,0-9.5-14.12l-6.49,13.72a44.3,44.3,0,0,0-3.64,11.63l-.2,1.19a32,32,0,0,0,1.92,17.4h0l-2.15-.25a57,57,0,0,0-30.18,12.65l-2.12,1.77a44.81,44.81,0,0,0-10.79,13.23l-.06.11a13.59,13.59,0,0,0-1.37,4h0a50.6,50.6,0,0,0-.73,9.75c.11,4.84.1,8.91.1,13l-10.37,3.54L967,495.8l-26.86-8.6c-1.26-.38-2.52-.71-3.8-1l-24-5.41a109.35,109.35,0,0,0-20.62-2.6l-28.46-.84-70.88,10.53-4.83-45.44-11.11-47-13.25-57.7a18.07,18.07,0,0,0-5.51-9.36l-13.88-12.49a3.1,3.1,0,0,0-3.85-.23h0a6.71,6.71,0,0,0-2.83,5.46h0a14.38,14.38,0,0,0,2,7.34l1.18,2a35.73,35.73,0,0,1,4.3,11l6.18,29.46,7.52,52.71,5.3,59.83.82,19.76-1.4,4.37A51.11,51.11,0,0,0,760.94,529l0,.21,7.85,25.31,3.3,22.24-9.05,14.85a9,9,0,0,0-.92,7.3l2.52,8.25a10.23,10.23,0,0,1,.21,5.21l-2.26,10.17h0A51,51,0,0,0,767.82,645l.52,1.06a79.35,79.35,0,0,1,4.18,10.26h0a67.67,67.67,0,0,0,6.64,14.28l1.12,1.84a5.7,5.7,0,0,0,3.81,2.61l9.52,1.75a7.67,7.67,0,0,0,6.5-1.82l.74-.65a6.3,6.3,0,0,0,1.23-7.93l-.63-1.07a13.28,13.28,0,0,0-9.8-6.42l-6.74-.84-6.19-23.69,30.56-28.76,19.37-15.8,19.74-3.91h55.14l-9.41,15.45a133.09,133.09,0,0,0-8.92,17.43l-3.7,8.78a37.17,37.17,0,0,0-2.81,11.61l-.48,6.43a6.46,6.46,0,0,0,1.9,5.08l11,10.88a7.42,7.42,0,0,0,3.27,1.9l8.57,2.38.16-.3a11.69,11.69,0,0,0-.42-11.92h0a30.78,30.78,0,0,0-8.1-8.5l-2.67-1.9,5.42-3.93A35,35,0,0,0,907.92,627h0a54.53,54.53,0,0,1,4.57-7.4l7.32-10a166.78,166.78,0,0,0,14.28-23.25l.2-.4H903.53" transform="translate(-736.68 -314.59)"/><path class="cls-5" d="M1109.52,498.37l-3.7,2.47a9.61,9.61,0,0,0-4,6h0a7.07,7.07,0,0,0,1.07,5.38l.62.93a17.12,17.12,0,0,0,2.73,3.15l4.3,3.89,2.76-5.3.79-5.62-2.17-7Z" transform="translate(-736.68 -314.59)"/><line class="cls-6" x1="368.04" y1="189.38" x2="317.13" y2="169.88"/><line class="cls-7" x1="364.34" y1="193.67" x2="310.19" y2="187.42"/><line class="cls-8" x1="365.88" y1="195.69" x2="319.29" y2="207.23"/><path class="cls-5" d="M1040.73,436.34l.35-1.31a42.72,42.72,0,0,0,1.48-11.16h0a12.63,12.63,0,0,0-.8-4.4l-1.43-3.81a19.17,19.17,0,0,0-2-4l-4.1-6.13-3,6.05a24.72,24.72,0,0,0-1.38,3.4l-.57,1.76a20.38,20.38,0,0,0-.9,8.48l.72,6.71.79,5" transform="translate(-736.68 -314.59)"/><ellipse class="cls-1" cx="1070.73" cy="475.47" rx="4.79" ry="11.88" transform="translate(-372.66 1095.27) rotate(-76.84)"/><circle class="cls-5" cx="334.05" cy="160.88" r="4.74"/><path class="cls-1" d="M1109.17,478.38l-.34.09a8.92,8.92,0,0,1-4.94,1.47h-1.46a2.92,2.92,0,0,1-2.28-1.06h0a2.51,2.51,0,0,1,0-3.13h0c.54-1.08,1.55-1.84,4.44-3.17l4.62-1.59v7.39l-.38,1-1.55-.4-.73-1.19-.39-1.62v-1.44h0a3.85,3.85,0,0,1,1.27-2.2l1.78-1.55" transform="translate(-736.68 -314.59)"/><polyline points="372.49 157.44 372.68 162.45 372.3 165.06 370.5 163.76 369.64 161.25 370.16 159.09 371.59 157.62"/><path class="cls-1" d="M1096.28,537.11l-3-.83a37,37,0,0,1-6.71-2.7l-.07,0a6.74,6.74,0,0,1-2.93-8.39h0" transform="translate(-736.68 -314.59)"/><path class="cls-9" d="M905.21,543.81l4.71,3,11.21-1.8a3.77,3.77,0,0,1,4.37,3.72v4.88a3.67,3.67,0,0,1-.25,1.35l-3.31,8.6a3.74,3.74,0,0,1-2.78,2.34L903.59,569a3.79,3.79,0,0,1-3.14-.79l-6.17-5.11a3.77,3.77,0,0,0-5.87,1.43l-4,9.42a2.31,2.31,0,0,0-.1.28l-2.5,7.46a3.77,3.77,0,0,1-4.31,2.5l-22.15-4.43a3.77,3.77,0,0,1-3-3.09l-3.25-20.07a3.77,3.77,0,0,1,6-3.62h0a3.78,3.78,0,0,0,5.94-2.14l1.77-7.47a3.77,3.77,0,0,1,7.21-.43l3.12,8.45a3.77,3.77,0,0,0,6.6.9l9.53-13.2a3.78,3.78,0,0,1,3.06-1.56H904" transform="translate(-736.68 -314.59)"/><path d="M796.46,546.87,802,561.65a2.68,2.68,0,0,1-3.81,3.27l-4.39-2.44a2.76,2.76,0,0,0-1.49-.33h0a2.67,2.67,0,0,1-1.53-5l2.25-1.31a2.66,2.66,0,0,0,1.22-1.55l4.63-15.54a2.68,2.68,0,0,1,2.57-1.92h3.39a2.7,2.7,0,0,1,1.7.61l3.52,2.89a2.66,2.66,0,0,1,.92,2.59l-.65,3.27a2.67,2.67,0,0,0,.83,2.52l3.48,3.12a2.66,2.66,0,0,1,.89,2v3.44a2.59,2.59,0,0,0,.24,1.1l5.19,11.43a2.69,2.69,0,0,1-.89,3.3l-4.69,3.31a2.67,2.67,0,0,1-1.55.49h-10a2.6,2.6,0,0,1-1.16-.27l-9.58-4.59a2.56,2.56,0,0,1-.79-.59l-5.06-5.39a2.68,2.68,0,0,0-2.32-.82l-7.65,1a2.31,2.31,0,0,1-.37,0h-1.22a2.68,2.68,0,0,1-2.58-3.39l4-14.38" transform="translate(-736.68 -314.59)"/><path d="M863,493.41l8.05-4.33a4.79,4.79,0,0,1,5.66.83h0a4.79,4.79,0,0,1-.12,6.89l-14.56,13.58a4.76,4.76,0,0,1-5.47.75l-12.28-6.37a4.78,4.78,0,0,0-5.23.54L829.62,513a4.78,4.78,0,0,1-6.63-.56l-5.83-6.67a4.78,4.78,0,0,1,1-7.14l9.91-6.57a4.85,4.85,0,0,0,1-.93l3.61-4.34c.63-.77-.06-4.48.9-4.73l29.51-4.24a4.69,4.69,0,0,1,1.54-.14l20.61.6" transform="translate(-736.68 -314.59)"/><path d="M756.43,412.52l10.15,3.54a3.17,3.17,0,0,1,1.69,5.2l-.61.67a3.18,3.18,0,0,0,.62,4.76l3.6,2.36a3.16,3.16,0,0,1-.38,5.5l-.9.43a3.17,3.17,0,0,0-.19,5.61L783.53,448a3.15,3.15,0,0,1,1.55,3.35l-1.67,8.76a3.16,3.16,0,0,1-5.67,1.26l-2.34-3.24a3.17,3.17,0,0,0-5.55.78h0a3.15,3.15,0,0,1-3,2.1h-1.71c-1.52,0-3.51.43-3.78-1.07l-.25-6.5" transform="translate(-736.68 -314.59)"/><path class="cls-9" d="M770.43,368.52l-8.9-1.52a4.53,4.53,0,0,1-2.51-7.23l1.15-1.45a3.9,3.9,0,0,0-.19-5.09l-2.32-2.5a6.27,6.27,0,0,1-.88-7.31l1.64-2.94L756,337a7.73,7.73,0,0,1-1.39-4.43v-.86a2.93,2.93,0,0,1,5.13-1.93l2.57,2.91" transform="translate(-736.68 -314.59)"/></svg>