<svg id="Layer_3" data-name="Layer 3" xmlns="http://www.w3.org/2000/svg" xmlns:xlink="http://www.w3.org/1999/xlink" viewBox="0 0 393.6 365.59"><defs><style>.cls-1,.cls-4,.cls-6,.cls-7,.cls-8,.cls-9{fill:none;}.cls-1,.cls-2,.cls-3,.cls-4,.cls-5,.cls-6,.cls-7,.cls-8,.cls-9{stroke-miterlimit:10;}.cls-1{stroke:url(#linear-gradient);}.cls-2,.cls-5{fill:#fff;}.cls-2,.cls-9{stroke:#001701;}.cls-3,.cls-4,.cls-5{stroke:#000;}.cls-6{stroke:url(#linear-gradient-2);}.cls-7{stroke:url(#linear-gradient-3);}.cls-8{stroke:url(#linear-gradient-4);}.cls-10{fill:#999;}</style><linearGradient id="linear-gradient" x1="393.6" y1="208.98" x2="392.59" y2="209.05" gradientUnits="userSpaceOnUse"><stop offset="0" stop-color="#fff"/><stop offset="1"/></linearGradient><linearGradient id="linear-gradient-2" x1="1036.63" y1="485.58" x2="1062.1" y2="485.58" gradientTransform="matrix(1.78, 0.2, 0.5, 1.15, -1766.66, -586.17)" xlink:href="#linear-gradient"/><linearGradient id="linear-gradient-3" x1="1032.17" y1="493.34" x2="1057.65" y2="493.34" gradientTransform="matrix(1.78, -0.25, 0.77, 0.99, -1892.67, -37.8)" xlink:href="#linear-gradient"/><linearGradient id="linear-gradient-4" x1="981.73" y1="771.57" x2="1007.2" y2="771.57" gradientTransform="matrix(1.38, -0.8, 0.96, 0.68, -1762.94, 477.51)" xlink:href="#linear-gradient"/></defs><line class="cls-1" x1="393.1" y1="208.87" x2="393.1" y2="209.16"/><path class="cls-2" d="M1023.92,434.56l-2.42-.51a57.07,57.07,0,0,0-30.18,12.64l-2.12,1.77a44.78,44.78,0,0,0-10.79,13.23l-.06.11a13.3,13.3,0,0,0-1.37,4h0a49.06,49.06,0,0,0-.73,9.75c.11,4.84.1,8.91.1,13L966,492.06l-28.65-8.71c-1.25-.38-2.51-.71-3.79-1l-29.38-6.62c-.69-.16-1.29-.33-1.84-.5a53.88,53.88,0,0,0-14.12-2.54l-27.7-1.05L789.6,484l-4.83-45.44-11.11-47-13.26-57.7a18,18,0,0,0-5.51-9.36l-15.71-14.14-2,1.42a6.67,6.67,0,0,0-2.83,5.46h0a14.38,14.38,0,0,0,2,7.34l1.18,2a36.13,36.13,0,0,1,4.3,11L748,367.08l7.51,52.71,5.31,59.83,1.45,18.23-.63,1.53a119.56,119.56,0,0,0-8.73,36.77l-.73,9.77a37,37,0,0,1-6.79,18.77l-16.2,22.65,2.57,35.3,4,27.35,5.69,7.7h3.42l1.71-4.85L746.31,642l-1.83-10.08a24.25,24.25,0,0,1-.4-5l.23-11.18v-6l8.29-1.27c6.7-1,23.64-5.66,29-9.87l-17.09-57.82,26,88.09.46,3.86a23.4,23.4,0,0,0,3.07,9.1l13.74,23.33,11.85,9.57,19-2,.1-.76a9.71,9.71,0,0,0-2.9-8.25l-1.56-1.5a8.91,8.91,0,0,0-7.42-2.41l-3.19.44-5-6.6a22.94,22.94,0,0,1-3.56-6.74L812,637.78l-2.7-7,5-5.31,2.26-3.48a23.58,23.58,0,0,0,3.71-10.57l.58-5.91-.55-10.79.39,7.65,8-8.19a7.16,7.16,0,0,1,4-1.84l20.13-2.24H877l26.33.83L921,598.81l-2.8,11.53a65.71,65.71,0,0,0-1.3,6.94L915.78,626l-1.51,15.82c-.17,1.73-.26,3.47-.27,5.21l-.09,10.72a15.46,15.46,0,0,0,1.2,6.12h0a14.09,14.09,0,0,0,7.79,7.65l1.73.69a18.1,18.1,0,0,0,12.23.41l5.19-1.66,2-1.21a3.56,3.56,0,0,0,.87-5.4l-3.45-4a3.14,3.14,0,0,0-2-1.06h0a12.34,12.34,0,0,1-9.89-7.31h0l12.46-25.32,4.14-7.93a31.31,31.31,0,0,0,3.57-14.53v-6.93l-5.56-22.51,2.71,13.15-3.53,4.21a17.76,17.76,0,0,1-9.09,5.78h-.06a24.14,24.14,0,0,1-7.52.77l-6.91-.38L903.36,591l17.81,6.67,7.35.27a17.77,17.77,0,0,0,12.79-4.79l5.6-5.23,4,13.93,16.34,11.82a6.26,6.26,0,0,0,.55.34l23.73,13.17,17.68,9a5.4,5.4,0,0,1,2.26,2.18l11.93,21.42a5.4,5.4,0,0,0,2.82,2.42h0a5.37,5.37,0,0,0,5-.63l1.56-1.08A5.39,5.39,0,0,0,1035,656v-9.26a5.49,5.49,0,0,0-.4-2l-3-7.3a5.46,5.46,0,0,0-1-1.63l-18.93-20.37-.22-.22L993.23,597.8a5.39,5.39,0,0,1-.77-6.87l.39-.59A19,19,0,0,0,996,579.27h0a29.09,29.09,0,0,0-1.64-8.81l-1.28-3.65a40.42,40.42,0,0,1-.8-4.06l-5.43-32.12.74,6.31-.74-6.31,9.63-1.54a47.5,47.5,0,0,0,22.6,17.41h0a43,43,0,0,0,4.44,1.38l2.44.62a68.44,68.44,0,0,0,16.91,2.12h0a50.47,50.47,0,0,0,20.71-4.45h0a16.15,16.15,0,0,0,5.73-4.33l1.68-2a6.16,6.16,0,0,1,6.53-1.92l2.45.26a20.46,20.46,0,0,0,7.51-.63h0a21.19,21.19,0,0,0,10.89-7.18l2.34-2.92,6.5-8.66,2.35-3.89a15.15,15.15,0,0,0,0-15.64l-2.36-3.92-.09-6.83.09-7.41.4-9.4c.19-7.69-2.23-15.4-6.28-20.7h0a27.8,27.8,0,0,0-4.46-4.8h0" transform="translate(-728.7 -309.74)"/><path class="cls-3" d="M1107.24,495.16l-3.7,2.48a9.48,9.48,0,0,0-4,6h0a7.11,7.11,0,0,0,1.06,5.38l.63.93a17.07,17.07,0,0,0,2.73,3.15l4.29,3.88,2.77-5.29.79-5.62-2.17-7Z" transform="translate(-728.7 -309.74)"/><ellipse class="cls-4" cx="1069.25" cy="475.95" rx="4.79" ry="11.88" transform="translate(-366.3 1099.05) rotate(-76.84)"/><circle class="cls-3" cx="340.55" cy="166.21" r="4.74"/><ellipse class="cls-5" cx="342.84" cy="164.88" rx="1.23" ry="1.05"/><path class="cls-4" d="M1107.13,480.62l-.34.09a9,9,0,0,1-4.93,1.47h-1.47a2.9,2.9,0,0,1-2.27-1.06h0a2.51,2.51,0,0,1,0-3.13h0c.54-1.08,1.55-1.85,4.44-3.17l4.62-1.59v7.39l-.38,1-1.54-.39-.74-1.19-.38-1.62V477h0a3.77,3.77,0,0,1,1.26-2.2l1.78-1.55" transform="translate(-728.7 -309.74)"/><polyline class="cls-4" points="378.36 165.32 377.89 164.73 378.12 164.05 378.36 163.66 378.36 163.49 377.1 165.26 377.1 166.09 377.3 167.22 377.68 168.69 378.13 168 378.14 167.34 377.88 166.41 377.73 165.49 377.73 165.38 377.67 165.15 378.44 165.48"/><path class="cls-4" d="M1097.41,532.38l-3-.83a37,37,0,0,1-6.71-2.7l-.07,0a6.73,6.73,0,0,1-2.93-8.39h0" transform="translate(-728.7 -309.74)"/><line class="cls-6" x1="372.11" y1="192.45" x2="321.2" y2="172.95"/><line class="cls-7" x1="370.45" y1="194.4" x2="316.3" y2="188.14"/><line class="cls-8" x1="372.65" y1="198.08" x2="326.05" y2="209.61"/><path class="cls-9" d="M1081,435.74" transform="translate(-728.7 -309.74)"/><path class="cls-2" d="M1023.78,435.07h0a32,32,0,0,1-1.92-17.4l.2-1.19a44,44,0,0,1,3.65-11.63l6.48-13.72a61.3,61.3,0,0,1,9.51,14.12h0a31.45,31.45,0,0,1,2.69,19.17l-1.26,7.19,11.59-1.32,9.93,1.65-.7-6a22.1,22.1,0,0,1,3.73-15.1l3.92-5.73h0l2.39,10.2,1.48,6.35a13.53,13.53,0,0,0,1.21,3.27l1.4,2.71L1081,434l5.72,4.9a24.25,24.25,0,0,0,2.52,1.88l1.71,1.1a27,27,0,0,1,2.92,2.18l3,2.16" transform="translate(-728.7 -309.74)"/><path class="cls-3" d="M1038.45,433.18l.29-1.39A56.64,56.64,0,0,0,1040,419.9h0a16.52,16.52,0,0,0-.68-4.69l-1.22-4.07a23.24,23.24,0,0,0-1.74-4.23l-3.47-6.53-2.53,6.45a31.2,31.2,0,0,0-1.18,3.62l-.48,1.87a27,27,0,0,0-.76,9l.61,7.15.67,5.34" transform="translate(-728.7 -309.74)"/><polyline class="cls-4" points="378.09 170.96 376.79 170.17 377.77 169.83 377.18 168.69 376.79 167.96 375.93 167.19 376.37 168.88 376.79 170.17 376.37 168.88 376.55 166.74 378.43 164.21"/><polyline class="cls-4" points="376.65 165.04 377.1 170.95 376.65 170.66"/><path d="M859.45,487.77l8-4.33a4.79,4.79,0,0,1,5.66.83h0a4.8,4.8,0,0,1-.12,6.89l-14.56,13.59a4.79,4.79,0,0,1-5.47.75l-12.28-6.38a4.8,4.8,0,0,0-5.24.54L826,507.38a4.78,4.78,0,0,1-6.63-.56l-5.84-6.67a4.79,4.79,0,0,1,1-7.14l9.91-6.57a4.57,4.57,0,0,0,1-.93l3.62-4.34c.63-.77-.07-4.48.9-4.73l29.51-4.23a4.44,4.44,0,0,1,1.54-.15l20.61.6" transform="translate(-728.7 -309.74)"/><path class="cls-10" d="M936.38,531.53l4.71,3,11.21-1.8a3.77,3.77,0,0,1,4.37,3.72v4.88a3.67,3.67,0,0,1-.25,1.35l-3.3,8.6a3.77,3.77,0,0,1-2.78,2.34l-15.57,3.12a3.81,3.81,0,0,1-3.15-.79l-6.17-5.11a3.77,3.77,0,0,0-5.87,1.43l-4,9.41c0,.1-.08.19-.11.29l-2.5,7.46a3.77,3.77,0,0,1-4.31,2.5l-22.15-4.43a3.77,3.77,0,0,1-3-3.09l-3.25-20.07a3.77,3.77,0,0,1,6-3.62h0a3.77,3.77,0,0,0,5.93-2.14l1.77-7.47a3.77,3.77,0,0,1,7.21-.43l3.12,8.45a3.77,3.77,0,0,0,6.6.9l9.53-13.2a3.78,3.78,0,0,1,3.06-1.56h11.67" transform="translate(-728.7 -309.74)"/><path d="M803.32,558.6l5.51,14.78a2.67,2.67,0,0,1-3.81,3.27l-4.39-2.44a2.73,2.73,0,0,0-1.48-.33h0a2.67,2.67,0,0,1-1.53-5l2.25-1.31a2.7,2.7,0,0,0,1.22-1.55l4.63-15.54a2.67,2.67,0,0,1,2.56-1.92h3.4a2.7,2.7,0,0,1,1.69.61l3.52,2.89a2.66,2.66,0,0,1,.93,2.59l-.66,3.28a2.69,2.69,0,0,0,.84,2.51l3.48,3.12a2.7,2.7,0,0,1,.89,2V569a2.74,2.74,0,0,0,.23,1.1l5.2,11.43a2.69,2.69,0,0,1-.9,3.3l-4.69,3.31a2.66,2.66,0,0,1-1.54.49h-10a2.56,2.56,0,0,1-1.15-.27L800,583.78a2.88,2.88,0,0,1-.8-.58l-5-5.4a2.69,2.69,0,0,0-2.32-.82L784.14,578l-.36,0h-1.22a2.68,2.68,0,0,1-2.58-3.39l4-14.38" transform="translate(-728.7 -309.74)"/><path d="M753.58,407.18l10.15,3.54a3.17,3.17,0,0,1,1.69,5.2l-.6.67a3.16,3.16,0,0,0,.62,4.75L769,423.7a3.17,3.17,0,0,1-.37,5.5l-.9.43a3.16,3.16,0,0,0-.19,5.61l13.12,7.42a3.17,3.17,0,0,1,1.55,3.35l-1.68,8.76a3.16,3.16,0,0,1-5.67,1.25l-2.34-3.24a3.16,3.16,0,0,0-5.54.79h0a3.17,3.17,0,0,1-3,2.1h-1.71c-1.52,0-3.5.43-3.78-1.07l-.25-6.51" transform="translate(-728.7 -309.74)"/><path class="cls-10" d="M770.34,378.28l-8.9-1.52a4.52,4.52,0,0,1-2.51-7.22l1.15-1.46a3.91,3.91,0,0,0-.19-5.09l-2.32-2.49a6.27,6.27,0,0,1-.88-7.32l1.63-2.93-2.46-3.54a7.78,7.78,0,0,1-1.39-4.43v-.85a2.94,2.94,0,0,1,5.14-1.94l2.56,2.91" transform="translate(-728.7 -309.74)"/></svg>