<svg id="Layer_2" data-name="Layer 2" xmlns="http://www.w3.org/2000/svg" xmlns:xlink="http://www.w3.org/1999/xlink" viewBox="0 0 554.25 378.9"><defs><style>.cls-1,.cls-3,.cls-4,.cls-5{fill:#fff;}.cls-1,.cls-10,.cls-11,.cls-12,.cls-13,.cls-14,.cls-15,.cls-16,.cls-4,.cls-5,.cls-6,.cls-7,.cls-8,.cls-9{stroke-miterlimit:10;}.cls-1{stroke:url(#radial-gradient);}.cls-2{fill:#010101;}.cls-4{stroke:url(#radial-gradient-2);}.cls-5{stroke:url(#radial-gradient-3);}.cls-10,.cls-11,.cls-12,.cls-13,.cls-15,.cls-16,.cls-6,.cls-7,.cls-8,.cls-9{fill:none;}.cls-6{stroke:url(#radial-gradient-4);}.cls-7{stroke:url(#radial-gradient-5);}.cls-8{stroke:url(#radial-gradient-6);}.cls-9{stroke:url(#radial-gradient-7);}.cls-10{stroke:url(#radial-gradient-8);}.cls-11{stroke:url(#radial-gradient-9);}.cls-12{stroke:url(#radial-gradient-10);}.cls-13,.cls-14{stroke:#000;}.cls-14{fill:#c7c9c6;}.cls-15{stroke:url(#radial-gradient-11);}.cls-16{stroke:url(#radial-gradient-12);}.cls-17{fill:#aeacad;}</style><radialGradient id="radial-gradient" cx="772.3" cy="443.61" r="141.64" gradientUnits="userSpaceOnUse"><stop offset="0"/><stop offset="0" stop-color="#292627"/><stop offset="0.53"/></radialGradient><radialGradient id="radial-gradient-2" cx="828.79" cy="461.85" r="16.04" xlink:href="#radial-gradient"/><radialGradient id="radial-gradient-3" cx="736.11" cy="419.79" r="17.29" xlink:href="#radial-gradient"/><radialGradient id="radial-gradient-4" cx="667.52" cy="438.7" r="37.05" xlink:href="#radial-gradient"/><radialGradient id="radial-gradient-5" cx="646.65" cy="473.23" r="37.05" gradientTransform="translate(-151.29 224) rotate(-3.41) scale(1.23 0.59)" xlink:href="#radial-gradient"/><radialGradient id="radial-gradient-6" cx="681.89" cy="484.81" r="37.05" gradientTransform="matrix(-0.69, -0.71, -0.94, 0.9, 1774.71, 545.86)" xlink:href="#radial-gradient"/><radialGradient id="radial-gradient-7" cx="716.27" cy="503.55" r="37.05" gradientTransform="matrix(-0.57, -0.82, -0.88, 0.61, 1700.46, 802.23)" xlink:href="#radial-gradient"/><radialGradient id="radial-gradient-8" cx="737.29" cy="508.93" r="37.05" gradientTransform="matrix(-0.62, -0.98, -0.71, 0.44, 1659.79, 1035.39)" xlink:href="#radial-gradient"/><radialGradient id="radial-gradient-9" cx="645.96" cy="492.06" r="37.05" gradientTransform="matrix(1.19, -0.39, 0.21, 0.63, -216.73, 421.96)" xlink:href="#radial-gradient"/><radialGradient id="radial-gradient-10" cx="608.75" cy="507.37" r="214.3" xlink:href="#radial-gradient"/><radialGradient id="radial-gradient-11" cx="431.64" cy="292.39" r="9.88" xlink:href="#radial-gradient"/><radialGradient id="radial-gradient-12" cx="460.91" cy="290.13" r="9.73" xlink:href="#radial-gradient"/></defs><path class="cls-1" d="M882.77,443.42s7.42-3.47,16.8-23.33l15.87-33.61s1.49-9.89-32.67,0-43.87,17.74-43.87,17.74S819.81,391,803.43,386.48l-41.07-11.2a167,167,0,0,0-6.27-41.7c-6.3-21.63-22.4-28.93-22.4-28.93a306.31,306.31,0,0,0-18,34.23c-7.35,17-9.34,39.2-9.34,39.2a131.68,131.68,0,0,0-34.54,16.8c-16.89,11.75-22.17,22.72-29.87,35.48s-12.13,27.89-12.13,42-3.86,18.7,7.18,36.4,37.62,37.34,37.62,37.34l44.81,20.54,50.4,14.93s67.52,7.68,84-16.82A105.57,105.57,0,0,0,866,540.55c5-14.1,7.44-26,10.26-37.39S882.77,443.42,882.77,443.42Z" transform="translate(-361.7 -304.01)"/><ellipse class="cls-2" cx="749.06" cy="490.79" rx="16.03" ry="22.83" transform="translate(-350.29 694.55) rotate(-67.78)"/><circle class="cls-3" cx="400.24" cy="187.8" r="5.34"/><path class="cls-4" d="M847.88,469.78a28.56,28.56,0,0,1-6.9,2.58c-1.92.45-15.09,3.5-24.12-5.17-6.63-6.37-6.89-15.1-6.89-17.23" transform="translate(-361.7 -304.01)"/><path class="cls-5" d="M756.6,431.61a47.84,47.84,0,0,1-10.34.87c-6.25-.16-19-.49-25.85-9.48-1.27-1.67-4.93-7-4.3-16.37" transform="translate(-361.7 -304.01)"/><path class="cls-6" d="M711.32,466.16c.09,0-23.18-39.31-43.8-27.76s.81-27.2-21.5-13.58-22.31-14.09-22.31-14.09" transform="translate(-361.7 -304.01)"/><path class="cls-7" d="M711.32,470.11c.11,0-29.75-21.59-54.59-13.24s0-16.17-26.78-6.47-27.8-6.72-27.8-6.72" transform="translate(-361.7 -304.01)"/><path class="cls-8" d="M797.18,494c-.06-.06,52.72-19.1,56.05,6s24.91-25.19,27.46,3,28.51,3.09,28.51,3.09" transform="translate(-361.7 -304.01)"/><path class="cls-9" d="M798.44,502.14c-.05-.07,47.92-5,49.47,19s23.55-17.31,24.25,9.37,25.16,9.72,25.16,9.72" transform="translate(-361.7 -304.01)"/><path class="cls-10" d="M798.83,508.47c-.06-.09,42.1,5.23,46.64,30.59s18.74-12.91,22.86,15,23.73,15.6,23.73,15.6" transform="translate(-361.7 -304.01)"/><path class="cls-11" d="M711.32,480c.11,0-35.77-15.8-57.84-.37s-4.74-17.56-28.38-.15-29.45-.16-29.45-.16" transform="translate(-361.7 -304.01)"/><path class="cls-12" d="M710.18,355.85l-53.44-14.61s-48.22-8.42-68-8.61-66.58-2.28-92.19,8.61S456,355.59,432.77,376a226,226,0,0,0-37.91,43.58S379.36,436.3,369,480s-7.76,38.5,0,70.62,8.61,39.63,25.84,62.89,26.57,28,43.94,36.19,33.6,16.37,49.11,23.26,51.69,9.48,62,9.48h57.72l59.86-3.77C678.14,678,714.41,670,725.36,668s29.24-4.51,41.92-9.68S779.39,649,780,640.19s-7.67-13.78-7.67-13.78-6.07-5.33-23.24-2.59l-37.74,6-39,6.9-48.57,6s-34-2.57-49.22-2.59-25.2,2.18-48.67-6.89-20.81-5.24-37.91-14.65-25.85-9.47-34.46-18.95l-8.62-9.48,43.08-1.72s18.95,11,32.74,2.58l13.78-8.37,22.4,6.65H640a51.23,51.23,0,0,0,16.74,15.51c10.78,6,19.9,5.51,32.77,5.17s18.66,0,32.74-.86,26.81-13.79,26.81-13.79,14.2,7.85,23.24,10.34c4.52,1.24,9.24,3,14.55,3.84a38,38,0,0,0,18.1-1.25c14.5-1.12,26.71.78,33.6-2.59s7.74-1.1,14.64-12.06-5.31-21.28-5.31-21.28" transform="translate(-361.7 -304.01)"/><path class="cls-13" d="M487.91,588.5s12.81-10.1,11.2-16.11-.77-4.36-2.33-7.77l-3.27-7.14c-5.43-11.89-13.35-17.05-13.35-17.05" transform="translate(-361.7 -304.01)"/><path class="cls-13" d="M520.65,591.08s6-12.05,6-18.69-6-14.91-6-14.91l-13.79-17.05" transform="translate(-361.7 -304.01)"/><path class="cls-13" d="M534.43,582.71s6-20.12,6-25.23-1.28-9.74-3-17.05-10.77-19.74-20.68-24.09-15.08,4.35-22.83,0-11.2-14.66-11.2-14.66l-2.58-15.21" transform="translate(-361.7 -304.01)"/><path class="cls-13" d="M647.88,598.42V582.71c0-5.62,2.45-11.66,8.86-18.24l17.87-18.37" transform="translate(-361.7 -304.01)"/><polyline class="cls-14" points="349.63 306.04 349.63 294.41 349.63 284.49 349.63 268.38"/><path class="cls-13" d="M674.66,610s-5.36-8.46,0-21.54,10.74-16.24,10.74-16.24" transform="translate(-361.7 -304.01)"/><line class="cls-13" x1="387.36" y1="291.38" x2="387.36" y2="271.41"/><line class="cls-15" x1="429.67" y1="278.7" x2="433.61" y2="306.07"/><line class="cls-16" x1="460.91" y1="303.88" x2="460.91" y2="276.39"/><path class="cls-2" d="M411.13,634.72s17.24-15.42,29.55-11.47,5.24,13.19,19.43,17.14,18.56-2.63,29.14-5.27,17.46-3.69,20.06,5.27-.07,10.55-6.18,17.14-6.1,5.28-15.82,0S497,676.1,497,676.1" transform="translate(-361.7 -304.01)"/><path class="cls-17" d="M608.75,334.18s.29,19.91-10,22.92-26.42,6.18-27.09,14.23,16.93,12.87,10.16,32.51-52.19,19.26-65,15.72-17.52-9.63-17.52-19.79-40-25.73-27.84-14.9,11.51,32.68-2.71,21.76-10.83,10.54-16.25,18.2-28.45-2.15-31.16-8.13-2.71-13.54-2.71-13.54V389.73s16.16-19.93,31.67-27.1l46.27-21.39,20.58-3.81,27.46-5.09" transform="translate(-361.7 -304.01)"/><path class="cls-17" d="M625,643.69s4.63,6.8,10.46,8.19,11.18-2.57,18.43-1.28-.67,2.91,5.4,4.64,22.41-2.79,24.4.46,22-3.67,15.65-6.09,11.17-1.13,10.74-7.37-16.65,11-22.15,3.14-4.8,2.13-.32-4.63,7.48-.79,13-2.29,4.47-5.37,4.47-5.37" transform="translate(-361.7 -304.01)"/><path class="cls-2" d="M561.49,497.15c14.9-14.07,29.12-14.84,29.8,0s-15.58,6.19-7.45,19.19,28.94-2.62,39.87,0,21.85,19.85,10.92,29.76S621.77,565.76,613,565.76s-9.55-3.23-17.31-14.28-14.52,36.81-23.33,20.78c-4.8-8.75-14.14-5.34-14.14-5.34s9.09,8.36-5.5,5.47-9.3-24.58-3.38-26.29,16.25.17,19.64-5.67-14.9,2.25-10.84-9.27S568.26,522.32,571,512,546.59,511.23,561.49,497.15Z" transform="translate(-361.7 -304.01)"/><path class="cls-2" d="M369,480s57,11.39,49.56,21.71,7.45,25.61,0,29.26-20.33,0-20.33,0-15.52,20.83,3.48,15.16,14.7-4,16.85,2.92-5,20.08-21,23.24-11.83-5.85-16-14.2-7.24,14.2-7.24,14.2l-7.86-31.83-4.25-19.94,2-18.81" transform="translate(-361.7 -304.01)"/><polyline class="cls-2" points="359.73 71.2 359.73 52.47 365.97 33.74 374.62 18.13 383.14 33.74 387.36 51.69 387.36 71.2"/><polyline class="cls-2" points="493.6 106.72 509.46 97.12 526.25 91.28 543.77 86.91 537.56 100.41 530.36 113.91 520.04 128.48"/></svg>