<svg id="Layer_2" data-name="Layer 2" xmlns="http://www.w3.org/2000/svg" viewBox="0 0 811.9 578.51"><defs><style>.cls-1{fill:none;}.cls-1,.cls-2,.cls-3,.cls-4{stroke:#000;stroke-miterlimit:10;}.cls-3{fill:#fff;}.cls-4{fill:#b8b7b5;}</style></defs><path class="cls-1" d="M764.1,463.87s25.08,15.18,41,21,39.78,9.49,55,8c16.67,1.41,31.72-3.09,41-4s28.64-7.33,46-18c10.7-4.18,24.06-19.07,31-28s11.38-17.49,15-31,2.59-31.11,3-36,2.14-11.82-2-23-8-14-8-14,14.13-21.82,17-34,5-33,5-33l-41,14c-11.72,4-35,21-35,21s-23.47-18.09-34-22-32.38-7.28-40-9-19.56-5-30-5-33,2-33,2v-20c0-9-7.42-14.21-12-23s-28-30-28-30l-20,36c-6.46,11.64-10,21-8,35s13,28,13,28-15.38,17.49-21,26-8.81,26.87-10,38,6.62,37.85,9,42,15.42,27.25,20,32l26,27-21,18s-28.48-11.37-34-13-46.78-12.92-51-15-50.8-14.48-57-15-41-3.09-48-4c-21.75,1.09-46.2,16.9-50.4,21.77-1.22,1.42-22.81,16.29-33,31.08a163.25,163.25,0,0,0-11.49,19.37c-2.08,4.28-5.18,12.17-5.18,12.17l-17.5,41s-11.46,3-16.42,5.62-25,13.55-28,15-31.31.8-37,0-28.39-11.43-31-15-12.77-17.39-19-26-17.27-20.76-21-29-6.39-16-7-26,3.51-37.62,5-48,6.44-31.26,12-37,27.27-31.13,33-34,21.36-12.6,32-16,36.25-8.8,47-9,45.69-1.47,55-1,27.59-8.34,32-12,7.4-9.11,8-13-5.23-15.35-9-18-4.75-6-20-14-27.61-6.25-34-6l-25,1s-32.38,4.32-39,5-38,16-38,16-34.21,19-42,26-25,22.4-30,27-21.16,30.13-26,38.5c-12.26,17.73-16.7,60.36-19,75.5s-1.9,25.88,0,36,12.67,28.92,19,38l23,33c3.61,5.19,19.49,30.73,23,33s28.76,20.66,34,22,27.72,7.4,35,9c34.06,1.92,89-29,89-29l14,20-21,31-26,45-31,49s-19.22,12-14,20,42.88,2.71,52,0,11-9,11-9l-5-17,65-65,40,91s46.72,3.22,55,0,11.75-6.49,9-14-6-10.36-11-13-16.68-3.42-22-1-15-1-15-1v-103s10.73,1.56,21-2,21.35-5.12,26-9,15.15-10.72,18-15l6-9,28,3,36,9c8.27,14,5.48,15.2,13,22s32,9,32,9l20,6s-9.19,15.73-11,24-7.25,25.06-7,32-3,20.09,1,28,8.15,9.89,16,15,30,6,30,6,34.56,1,40-2,7.17-21.6,3-26-15,0-15,0l-19,2s-4.27,3.54-13-6,0-20,0-20,10.42-23.83,13-29l8-16,10-20s1.93,12.42,7,21,8.49,16.75,13,22,15.56,16.86,18,21l10,17s18,2,27,1,13.35-3.33,16-9,4.47-9.11,0-14-30-1-30-1l-6-22s-4.47-18.39-4-25,1.66-26.43,4-35,6-22,6-22c.34-1.52,7.65-18.7,9-26s-5-33-5-33l-8-27,5-18" transform="translate(-216.02 -199.08)"/><path class="cls-1" d="M758.37,452.92" transform="translate(-216.02 -199.08)"/><ellipse class="cls-2" cx="848.76" cy="401.45" rx="16.33" ry="28.12" transform="translate(39.28 929.95) rotate(-76.11)"/><circle class="cls-3" cx="648.61" cy="202.37" r="4.08"/><path class="cls-1" d="M912.25,409.43q107.93-11.34,115.18,22.67" transform="translate(-216.02 -199.08)"/><path class="cls-1" d="M905.9,419.59c44.92-1.87,83.38,6.66,107,39" transform="translate(-216.02 -199.08)"/><path class="cls-1" d="M904.08,433.9c45.8,0,81.29,11.17,91.61,49.39" transform="translate(-216.02 -199.08)"/><path class="cls-1" d="M774.39,384.22C720.19,346.75,680,338,655.58,361.55" transform="translate(-216.02 -199.08)"/><path class="cls-1" d="M776.2,397.37c-57.83-28.74-101.46-30.44-126.06,4.08" transform="translate(-216.02 -199.08)"/><ellipse class="cls-1" cx="791.52" cy="326.2" rx="11.72" ry="35.6" transform="translate(-102.76 649.49) rotate(-60)"/><ellipse class="cls-1" cx="928.95" cy="371.43" rx="11.72" ry="35.6" transform="translate(254.64 1061.67) rotate(-84.53)"/><circle class="cls-2" cx="576.07" cy="127.45" r="12.01"/><circle class="cls-3" cx="576.7" cy="126.63" r="4.35"/><circle class="cls-2" cx="712.93" cy="172.35" r="12.01"/><circle class="cls-3" cx="712.93" cy="172.35" r="4.35"/><polyline class="cls-3" points="166.97 578.01 175.51 567.79 173.5 554.72"/><polyline class="cls-3" points="193.75 575.03 193.75 566.37 187.08 554.72"/><polyline class="cls-3" points="372.53 569.72 355.47 564.88 346.92 564.88"/><polyline class="cls-3" points="374.08 559.79 361.5 554.72 348.93 554.72"/><polyline class="cls-3" points="599.63 549.87 588.7 546.68 578.65 549.87"/><polyline class="cls-3" points="599.63 538.63 589.14 538.63 578.65 542.65"/><polyline class="cls-3" points="673.08 516.79 661.08 513 651.53 513"/><polyline class="cls-3" points="675.53 506.86 662.3 503.45 651.53 505.15"/><path class="cls-3" d="M838.92,423.5l-5.55,10s4.44,4.81,7.4,7.41,8,2.59,8,2.59" transform="translate(-216.02 -199.08)"/><path class="cls-3" d="M813,433.49s2.44,1.85,9.62,1.85,10.74-1.85,10.74-1.85" transform="translate(-216.02 -199.08)"/><path class="cls-4" d="M721,473.22s24.9,15.15,23.09,24.78-19.17,1.81-23.09,7.91-17.53,25.32-6,21.74,23,18.15,17.24,23.72-36.75,14.16-45.44,6.92-10.87-29.65-10.87-29.65S661.88,508,654.17,512s-6,14.66-14.17,14.66-26.6,7.87-34.26,0-15.17-20.8-6.92-27.67,23.92,10.08,25.7,1-36.12-10.93-25.7-26.76S575.25,486.4,565,488.48s-17.52.21-25.43-6.29-10.16-11.37-7.9-18.4.26-11.69,10.87-20.3,35-6.46,35-6.46,33.43,1.32,39.08,4.63,41.49,12.21,41.49,12.21Z" transform="translate(-216.02 -199.08)"/><path class="cls-4" d="M405.1,340.87c42-2.32,18.1-3,32.63-2.32,0,0,6.56-4.3,11.86-17.19s-4.94-18.06-4.94-18.06-18.67-19.13-17.31-3.95-2.58,15.17-17.57,15.17-32.2-4.95-18.23-15.17-13-14.92-14.1-6.92-11.88-1.22-12.85,14.82,16.16,8.62,8.9,14.11-36,6.21-20.76,8.7-4,17.3-13.83,12.9-21.41,26-1.11,16.46,17.62-16.9,33.72-16.46,12.92,1.12,22.18,0C398.82,342.34,378.52,343.2,405.1,340.87Z" transform="translate(-216.02 -199.08)"/><path class="cls-2" d="M216.52,493.06s1-49.19,14.65-29.27,21.62-2.07,26.68,4.56,10.88,11,7.91,20.13-14.82,9.18-14.82,9.18-4,12.89-3,22.08,20.27,38.85,17.79,21.74,6.52-6.48,17.79,0,0,21.75,0,21.75a26.38,26.38,0,0,1-14.82,0l1,24.35-9.63-14.71L242,548.4a158.68,158.68,0,0,1-13.71-22.71C221.48,512,216.52,493.06,216.52,493.06Z" transform="translate(-216.02 -199.08)"/><path class="cls-1" d="M780.07,373.31c-47.31-45.86-85.53-61.14-113.48-41.86" transform="translate(-216.02 -199.08)"/><path class="cls-2" d="M530.79,579.22c10.28-9.23,30.5-13.65,38.84-5.08s8.13,12.11,6.12,20.32-22.48,8.12-22.48,8.12,1.27,39.93-8,27.43-23.18,11-33.52,8.13c-11.18-3.09-46.73-17.44-33.53-25.4s3.05-52.33-7.11-42.66S451.26,549.17,461,543.67s21.22-17.39,29.45,0-24.5,7.24,0,22.35,14.11,38.58,20.32,24.88,8.61,35.38,15.24,25.91-19.39-38.36-13.21-55.75S520.51,588.45,530.79,579.22Z" transform="translate(-216.02 -199.08)"/><path class="cls-2" d="M780.07,274.31s3.69-9.39,3.69-15.64-4-11.24-9.37-19.82l-10.45-16.68-5.57-7.82-6.94,8.34s-5.07,9.38-7.23,15.64-3.15,9.9-2.16,15.64-2,4.19,2.16,12.52l7.23,14.6Z" transform="translate(-216.02 -199.08)"/><path class="cls-2" d="M949.89,310.81s3.19-2.08,9.52-8.86c18-6.92,10.33-3.52,14.15-5.22l14.08-6.26,12.51-6.77s2.17,7,0,13.55-.14,7.26-4.46,13.56l-8.57,12.48-7.3,9.42" transform="translate(-216.02 -199.08)"/><path class="cls-2" d="M847.44,579.51c15.79-10.48-45.07-21.23-32.9-9.26s-12.81,30.62-1.55,31,15.06,7.94,11.15,11.67,23.32,5.77,28.14,1.16-3.63-8.25,3.41-14.21S831.65,590,847.44,579.51Z" transform="translate(-216.02 -199.08)"/></svg>