<svg id="Layer_2" data-name="Layer 2" xmlns="http://www.w3.org/2000/svg" xmlns:xlink="http://www.w3.org/1999/xlink" viewBox="0 0 662.26 636.96"><defs><style>.cls-1,.cls-10,.cls-11,.cls-12,.cls-6,.cls-7,.cls-8,.cls-9{fill:none;}.cls-1,.cls-13{stroke:#000;}.cls-1,.cls-10,.cls-11,.cls-12,.cls-13,.cls-7,.cls-8,.cls-9{stroke-miterlimit:10;}.cls-2{fill:#010101;}.cls-3{fill:#101010;}.cls-4{fill:#afacad;}.cls-13,.cls-5{fill:#fff;}.cls-7{stroke:url(#linear-gradient);}.cls-8{stroke:url(#linear-gradient-2);}.cls-9{stroke:url(#linear-gradient-3);}.cls-10{stroke:url(#linear-gradient-4);}.cls-11{stroke:url(#linear-gradient-5);}.cls-12{stroke:url(#linear-gradient-6);}</style><linearGradient id="linear-gradient" x1="423.63" y1="478.97" x2="525.04" y2="478.97" gradientUnits="userSpaceOnUse"><stop offset="0" stop-color="#fff"/><stop offset="1"/></linearGradient><linearGradient id="linear-gradient-2" x1="418.98" y1="452.84" x2="520.53" y2="452.84" xlink:href="#linear-gradient"/><linearGradient id="linear-gradient-3" x1="405.12" y1="433.37" x2="498.99" y2="433.37" xlink:href="#linear-gradient"/><linearGradient id="linear-gradient-4" x1="495.41" y1="783.12" x2="589.28" y2="783.12" gradientTransform="matrix(-0.89, -0.7, 0.81, -0.72, 98.28, 1416.26)" xlink:href="#linear-gradient"/><linearGradient id="linear-gradient-5" x1="480.48" y1="771.51" x2="574.35" y2="771.51" gradientTransform="matrix(-0.99, -0.56, 0.69, -0.83, 241.28, 1427.74)" xlink:href="#linear-gradient"/><linearGradient id="linear-gradient-6" x1="450.59" y1="752" x2="544.46" y2="752" gradientTransform="matrix(-1.12, -0.16, 0.34, -1.03, 566.49, 1372.37)" xlink:href="#linear-gradient"/></defs><path class="cls-1" d="M384.78,521.55c-1.65,10.65-3.43,24.52-5.08,35.17-3.31,12.71-7.84,30.52-9.93,38.11s-10.06,39.12-6,44.26,24.51,13,29.78,14.76S410.27,660,420.4,660s25.24-9.35,23.82-16-15.07-19.41-20.84-25.82-7.88-8.61-6.95-18.44,4.33-18.53,6.13-20.33l1.81-1.8" transform="translate(-289.38 -183.52)"/><path class="cls-1" d="M685.46,731l42.18-13.32s23.06-10.5,28.86-20a31,31,0,0,0,4.44-18.88c-.65,3.94,2.69-12.5,3.33-33.3.28-9-.87-20-5.55-30S745.44,591.13,741,583.4s-18.87-26.64-18.87-26.64,5.55-24.42,0-34.41-15.54-21.09-15.54-21.09S692.67,513,685.46,520.13,663.26,549,663.26,549s-27.44-2.31-44.49,0-35.43,10-35.43,10-6.43-11.3-22.76-22.2a189.93,189.93,0,0,0-30.52-16.65s-4.07,20.56,0,37.74,7.77,28.86,7.77,28.86-9.34,9.88-12.21,21.09a157.77,157.77,0,0,0-4.44,33.3c0,7.58,0,24.88,8.32,40s16.53,32.19,36.08,41.08,47.34,8.73,53.19,8.88,58,0,66.69,0,17.09,5.45,51.06,21.09,42.27,12.21,53.28,15.54,20.4,5.14,42.18,10,28.74,6.26,32.19,11.1,7.55,13.32,0,18.87a28.85,28.85,0,0,1-15.54,5.55L832,818.73" transform="translate(-289.38 -183.52)"/><path class="cls-1" d="M848.63,813.18s3.31-8.88,0-15.54S832,791,832,791" transform="translate(-289.38 -183.52)"/><path class="cls-1" d="M938.54,786.54" transform="translate(-289.38 -183.52)"/><path class="cls-1" d="M727.64,717.72l22,8.18,31.45,11,29.95,12s21.06,11.28,32,15.47c5.88,2.26,37,8.42,43.58,11.1,6,2.44,15.2,5.94,20.92,8.23a46.26,46.26,0,0,0,10,2.87" transform="translate(-289.38 -183.52)"/><path class="cls-1" d="M757.38,694l7.12,3.54,23.79,10.13L819,720.39s11,4.39,19.55,7.09,25.56,8.19,35.68,10.57,37.82,4.92,41,6.17,21.71,8.64,25.54,10.13,7.82,5.55,9.69,10,.15,13.83-4,16-10.13,5.44-11.76,6.2-10.15,0-10.15,0h-7.06" transform="translate(-289.38 -183.52)"/><path class="cls-1" d="M577,791" transform="translate(-289.38 -183.52)"/><path class="cls-1" d="M903.06,765.78s12-1.88,18.15,5.49a16.47,16.47,0,0,1,3.3,15.27" transform="translate(-289.38 -183.52)"/><path class="cls-1" d="M917.45,758.08a21.91,21.91,0,0,1,18,7.7c7.76,9,4.59,17.89,4.59,17.89" transform="translate(-289.38 -183.52)"/><path class="cls-1" d="M818.65,798.19s10.54.7,13.33,6.11a9.42,9.42,0,0,1,.59,1.42c2.18,6.72-2.87,13.67-9.92,14.13-4.34.28-9.1.19-11.76-1.12-4.62-2.29-14.16-8.9-17.6-11.31a11,11,0,0,0-2.77-1.42l-34-11.69-71.66-28.67c-.33-.13-.66-.24-1-.34L628.37,749a10.73,10.73,0,0,1-1.24-.44l-61.55-26.38-36-16.36a10.76,10.76,0,0,0-1.27-.49c-4.6-1.44-33-10.6-46-20.9-14.14-11.22-30-29.37-35.53-44.4l-22-59.31a9.91,9.91,0,0,1-.39-1.28L413.6,533.84c-.07-.26-.14-.52-.22-.77l-4.81-15.24A11.1,11.1,0,0,0,388,516.32l-7.8,16-24.07,43.78a11.71,11.71,0,0,0-.61,1.29L344.7,605a11,11,0,0,0-.62,5.88l1.26,7.55a11.06,11.06,0,0,0,2.15,5l9.4,12.22,5.88,7.83a11.12,11.12,0,0,1,1,11.63l-.52,1.05a11.09,11.09,0,0,1-9.93,6.13h-13A11.16,11.16,0,0,1,338,662l-30.2-6.61a11.07,11.07,0,0,1-6.63-4.35L292,638.34a11.09,11.09,0,0,1-1.91-8.57s7-36.67,7.21-37.26c0,0,14.1-38.64,14.1-40,0,0,.09-35,.26-35.81,0,0,8.74-42.36,10.35-45.57s17-35.56,20.79-41.44S364.66,393.35,369,389.3s17-18.51,33.3-30.73a179.91,179.91,0,0,1,32.38-19.22,11.14,11.14,0,0,0,3.5-3.3s4.74-7.3,15.26-22.38,24.23-35.85,32.74-46.93,20.3-26.16,38.07-38.31,42.71-22.23,55.8-27.15,30.78-12.68,34.82-13.08L656.31,184l73.92,8.57c.49.06,57.91,14.9,59,15.65,0,0,13.88,5.87,23.67,16.39A29.59,29.59,0,0,1,821,247.21s.18,5.66-1.25,8.09c0,0-4.2,7.85-7.09,12.05s-15.09,10.85-22.23,12.32-20.41-2.83-27.87-6.24-28.29-12.83-34.93-16.37-22-12.2-36.63-16.89-25.42-4.86-42.18-6.1-44.68,10.81-54.55,13.72-44.2,23.66-48.64,28.09-31.75,31.47-36.37,38.22a21.1,21.1,0,0,0-4,13s1.21,11.51,6.64,13.6l17.76,6.83c1,.37,30.3,22.33,30.3,22.33.38.29,25,24.36,25,24.36,1.07,1.06,17,39,17,39,.09.22,16.33,48.08,16.33,48.08.24.72,4.9,38.83,4.9,38.83L627.74,549" transform="translate(-289.38 -183.52)"/><path class="cls-1" d="M446.8,640" transform="translate(-289.38 -183.52)"/><path class="cls-1" d="M356.89,635.57" transform="translate(-289.38 -183.52)"/><polygon class="cls-2" points="259.49 392.79 252.87 373.45 247.89 353.57 265.02 359.09 278.83 369.59 284.35 376.22 259.49 392.79"/><polygon class="cls-3" points="391.51 365.17 399.8 348.05 413.61 338.03 420.79 334.24 425.76 344.18 429.07 357.44 425.76 370.69 391.51 365.17"/><path class="cls-2" d="M536,362.77l-29.31-4.61a10.57,10.57,0,0,0-11.36,6.27l-.11.28a14.2,14.2,0,0,0,5.33,17.52h0c8.33,5.39,5.28,18.3-4.59,19.33l-.41,0a9.5,9.5,0,0,0-6.41,3.33,5.27,5.27,0,0,0,5.56,8.44l28.09-8.47a4.69,4.69,0,0,1,4.92,7.53c-8,9.33-21.26,20.92-18.9,22.88a13.64,13.64,0,0,1,2,1.76l13,15.74a10.58,10.58,0,0,0,18.59-5c1.1-6.49,2.11-12.27,3.13-13.38l5.43-5.92a6.06,6.06,0,0,1,9,0l4,4.45a7.74,7.74,0,0,0,11,.44l1.47-1.39a9.63,9.63,0,0,0-.53-14.48l-3.77-3.07a5.35,5.35,0,0,1,4-9.46h0a.9.9,0,0,0,.81-1.44l-4.31-5.7A7.28,7.28,0,0,1,577,386.38h0l-12.92-12.6-9.15.42a8.27,8.27,0,0,1-6.62-2.82l-3.09-3.54A15.43,15.43,0,0,0,536,362.77Z" transform="translate(-289.38 -183.52)"/><path class="cls-4" d="M359.49,459.81l23.62,8.36a4.69,4.69,0,0,1,3.13,4.42v11.28a4.69,4.69,0,0,1-6.66,4.26h0a4.69,4.69,0,0,0-6.6,5l2.26,15.05a4.69,4.69,0,0,1-6.19,5.12l-8.64-3a4.68,4.68,0,0,0-5.32,1.65L345,525.7a4.69,4.69,0,0,1-7.65-.13l-7.37-10.81a4.69,4.69,0,0,1,.11-5.44l10.11-13.63a4.67,4.67,0,0,0-.79-6.42l-4.68-3.83a4.69,4.69,0,0,1,1.52-8.09l6.93-2.26a4.69,4.69,0,0,0,2-7.6l-6.36-7.06a4.69,4.69,0,0,1,2.12-7.63l8.87-2.7a4.69,4.69,0,0,1,5.9,3.31l.82,3.16A4.7,4.7,0,0,0,359.49,459.81Z" transform="translate(-289.38 -183.52)"/><path class="cls-4" d="M475.54,587l-9.92-1.74a7.83,7.83,0,0,1-2.51-14.53c8.43-4.73,19.85-7.44,27.08-7.44h0A18,18,0,0,1,503,568.59l7.4,7.47a12.86,12.86,0,0,1-1.85,19.64h0A12.54,12.54,0,0,0,503.12,607l2.56,7.2a3.72,3.72,0,0,1-5.5,4.39l-7.89-5a9.29,9.29,0,0,0-14.24,0l-4.47,5.33a5.53,5.53,0,0,1-9.72-2.85l15.21-15.67A8.11,8.11,0,0,0,475.54,587Z" transform="translate(-289.38 -183.52)"/><path class="cls-4" d="M536.21,220.77l-.59,17.32c-.16,4.69,4.11,8.65,9.53,8.84l16.3.55c6,.2,10.72-4.21,10.06-9.35l-.09-.71c-.75-6,5.65-10.66,12.34-9l5.18,1.25c6.65,1.61,13-3,12.35-9l-.78-6.69a7.32,7.32,0,0,1,.62-3.93l7.72-17.16a9.25,9.25,0,0,1,5.94-4.9h0" transform="translate(-289.38 -183.52)"/><path class="cls-2" d="M703.48,245l-4.05-24.36A2.33,2.33,0,0,1,701,218l21.92-7.31a2.34,2.34,0,0,1,.74-.12h19.61a2.35,2.35,0,0,1,2.3,1.91l4.37,23.71a2.33,2.33,0,0,0,3.59,1.52l11.33-7.54a2.34,2.34,0,0,1,3.63,2v18.63a2.33,2.33,0,0,1-3.54,2l-29-17.49a2.33,2.33,0,0,0-3.51,2.31l.69,5a2.33,2.33,0,0,1-3.47,2.34h0a2.33,2.33,0,0,0-2.77,3.71l16.74,16.14" transform="translate(-289.38 -183.52)"/><path class="cls-1" d="M329,660s4.52-3.43,0-13.92-13.91-10.5-13.91-10.5" transform="translate(-289.38 -183.52)"/><path class="cls-1" d="M353.36,662.21a20.58,20.58,0,0,0,0-14.43c-2.93-7.77-15.91-15.14-15.91-15.14" transform="translate(-289.38 -183.52)"/><path class="cls-1" d="M438,653.52s0-6.13-5.7-13.51S410,632.64,410,632.64" transform="translate(-289.38 -183.52)"/><path class="cls-1" d="M426.62,659.05s-.82-5.07-5.47-11.27-14.77-4.7-14.77-4.7" transform="translate(-289.38 -183.52)"/><path class="cls-2" d="M674.18,663.25c.28,1.8-10,10.9-21.28,12.64s-23.5-3.87-23.78-5.67c-1.12-7.21,8.07-14.62,20.51-16.55S673.06,656,674.18,663.25Z" transform="translate(-289.38 -183.52)"/><circle class="cls-5" cx="372.21" cy="479.85" r="3.37"/><line class="cls-6" x1="405.43" y1="470" x2="495.59" y2="413.74"/><line class="cls-6" x1="410.02" y1="479.85" x2="513.36" y2="441.87"/><line class="cls-7" x1="423.71" y1="487.93" x2="524.96" y2="470"/><line class="cls-8" x1="419.19" y1="476.48" x2="520.32" y2="429.2"/><line class="cls-9" x1="405.43" y1="470" x2="498.68" y2="396.74"/><line class="cls-10" x1="324.37" y1="482" x2="181.71" y2="469.07"/><line class="cls-11" x1="328.38" y1="487.85" x2="185.43" y2="496.91"/><line class="cls-12" x1="331" y1="490.41" x2="201.24" y2="551.07"/><ellipse class="cls-13" cx="583.13" cy="627.6" rx="27.34" ry="8.1" transform="translate(-413.1 -39.94) rotate(-12.7)"/><ellipse class="cls-2" cx="293.75" cy="444.08" rx="9.91" ry="7.29"/><circle class="cls-5" cx="298.98" cy="442.01" r="2.07"/><ellipse class="cls-13" cx="680.89" cy="600.98" rx="27.34" ry="8.1" transform="translate(-454.88 88.22) rotate(-20.18)"/><ellipse class="cls-2" cx="391.51" cy="417.46" rx="9.91" ry="7.29"/><circle class="cls-5" cx="396.45" cy="414.83" r="2.04"/><polyline class="cls-1" points="366.84 499.24 368.84 510.47 384.81 513.96"/><line class="cls-1" x1="368.84" y1="510.47" x2="357.21" y2="517.3"/></svg>