<?xml version="1.0" encoding="utf-8"?>
<!-- Generator: Adobe Illustrator 25.2.3, SVG Export Plug-In . SVG Version: 6.00 Build 0)  -->
<svg version="1.1" id="Layer_2_1_" xmlns="http://www.w3.org/2000/svg" xmlns:xlink="http://www.w3.org/1999/xlink" x="0px" y="0px"
	 viewBox="0 0 662.3 637" style="enable-background:new 0 0 662.3 637;" xml:space="preserve">
<style type="text/css">
	.st0{fill:#FFFFFF;stroke:#272727;stroke-miterlimit:10;}
</style>
<path class="st0" d="M134.9,394.1l12.5-3l-6.3-30.8l-19.7-42.5l-27.3,9l1.3,11.2c-1.7,10.6-3.4,24.5-5.1,35.2
	c-3.3,12.7-7.8,30.5-9.9,38.1s-10.1,39.1-6,44.3s24.5,13,29.8,14.8s16.7,6.1,26.8,6.1s25.2-9.4,23.8-16s-15.1-19.4-20.8-25.8
	s-7.9-8.6-7-18.4s4.3-18.5,6.1-20.3L134.9,394.1"/>
<path class="st0" d="M559.2,629.7c0,0,3.3-8.9,0-15.5s-16.6-6.6-16.6-6.6"/>
<path class="st0" d="M649.1,603"/>
<path class="st0" d="M438.2,534.2l22,8.2l31.5,11l29.9,12c0,0,21.1,11.3,32,15.5c5.9,2.3,37,8.4,43.6,11.1c6,2.4,15.2,5.9,20.9,8.2
	c3.2,1.3,6.6,2.3,10,2.9"/>
<path class="st0" d="M468,510.5l7.1,3.5l23.8,10.1l30.7,12.7c0,0,11,4.4,19.5,7.1s25.6,8.2,35.7,10.6s37.8,4.9,41,6.2
	s21.7,8.6,25.5,10.1s7.8,5.5,9.7,10s0.2,13.8-4,16s-10.1,5.4-11.8,6.2s-10.2,0-10.2,0h-7.1"/>
<path class="st0" d="M287.6,607.5"/>
<path class="st0" d="M613.7,582.3c0,0,12-1.9,18.2,5.5c3.6,4.2,4.8,9.9,3.3,15.3"/>
<path class="st0" d="M628,574.6c6.9-0.4,13.5,2.4,18,7.7c7.8,9,4.6,17.9,4.6,17.9"/>
<path class="st0" d="M529.2,614.7c0,0,10.5,0.7,13.3,6.1c0.2,0.5,0.4,0.9,0.6,1.4c2.2,6.7-2.9,13.7-9.9,14.1
	c-4.3,0.3-9.1,0.2-11.8-1.1c-4.6-2.3-14.2-8.9-17.6-11.3c-0.9-0.6-1.8-1.1-2.8-1.4l-34-11.7l-71.7-28.7c-0.3-0.1-0.7-0.2-1-0.3
	L339,565.5c-0.4-0.1-0.8-0.3-1.2-0.4l-61.6-26.4l-36-16.4c-0.4-0.2-0.8-0.4-1.3-0.5c-4.6-1.4-33-10.6-46-20.9
	c-14.1-11.2-30-29.4-35.5-44.4l-22-59.3c-0.2-0.4-0.3-0.8-0.4-1.3l-10.8-45.6c-0.1-0.3-0.1-0.5-0.2-0.8l-4.8-15.2
	c-1.8-5.8-8.1-9.1-13.9-7.2c-2.9,0.9-5.3,3-6.6,5.7l-7.8,16l-24.1,43.8c-0.2,0.4-0.4,0.8-0.6,1.3l-10.8,27.6c-0.7,1.9-1,3.9-0.6,5.9
	l1.3,7.5c0.3,1.8,1,3.5,2.2,5l9.4,12.2l5.8,7.9c2.5,3.4,2.9,7.9,1,11.6l-0.5,1c-1.9,3.8-5.7,6.1-9.9,6.1h-13c-0.8,0-1.6-0.1-2.3-0.3
	l-30.2-6.6c-2.7-0.6-5-2.1-6.6-4.4l-9.2-12.7c-1.8-2.5-2.5-5.6-1.9-8.6c0,0,7-36.7,7.2-37.3c0,0,14.1-38.6,14.1-40
	c0,0,0.1-35,0.3-35.8c0,0,8.7-42.4,10.4-45.6c1.6-3.2,17-35.6,20.8-41.4s21.9-36.3,26.2-40.4s17-18.5,33.3-30.7
	c10.1-7.5,20.9-14,32.4-19.2c1.4-0.8,2.6-2,3.5-3.3c0,0,4.7-7.3,15.3-22.4s24.2-35.9,32.7-47s20.3-26.2,38.1-38.3
	s42.7-22.2,55.8-27.1s30.8-12.7,34.8-13.1l41.4-4.2l73.9,8.6c0.5,0.1,57.9,14.9,59,15.6c0,0,13.9,5.9,23.7,16.4
	c5.8,6.1,8.7,14.3,8.1,22.6c0,0,0.2,5.7-1.2,8.1c0,0-4.2,7.8-7.1,12S508.2,94.6,501,96.1s-20.4-2.8-27.9-6.2S444.9,77,438.2,73.5
	s-22-12.2-36.6-16.9s-25.4-4.9-42.2-6.1s-44.7,10.8-54.5,13.7c-9.9,2.9-44.2,23.7-48.6,28.1c-4.4,4.4-31.8,31.5-36.4,38.2
	c-2.7,3.8-4.1,8.3-4,13c0,0,1.2,11.5,6.6,13.6l17.8,6.9c1,0.4,30.3,22.3,30.3,22.3c0.4,0.3,25,24.4,25,24.4c1.1,1.1,17,39,17,39
	c0.1,0.2,16.3,48.1,16.3,48.1c0.2,0.7,4.9,38.8,4.9,38.8l4.5,28.9"/>
<path class="st0" d="M157.4,456.5"/>
<path class="st0" d="M67.5,452.1"/>
<path class="st0" d="M39.6,476.5c0,0,4.5-3.4,0-13.9s-13.9-10.5-13.9-10.5"/>
<path class="st0" d="M64,478.7c1.7-4.7,1.7-9.8,0-14.4c-2.9-7.8-15.9-15.1-15.9-15.1"/>
<path class="st0" d="M148.6,470c0,0,0-6.1-5.7-13.5s-22.3-7.4-22.3-7.4"/>
<path class="st0" d="M137.2,475.5c0,0-0.8-5.1-5.5-11.3c-4.6-6.2-14.8-4.7-14.8-4.7"/>
<path class="st0" d="M396.1,547.5l42.2-13.3c0,0,23.1-10.5,28.9-20c3.5-5.7,5-12.3,4.4-18.9c-0.6,3.9,2.7-12.5,3.3-33.3
	c0.3-9-0.9-20-5.5-30s-13.3-24.4-17.7-32.1s-18.9-26.6-18.9-26.6s5.5-24.4,0-34.4s-15.5-21.1-15.5-21.1s-13.9,11.7-21.1,18.9
	s-22.2,28.9-22.2,28.9s-27.4-2.3-44.5,0s-35.4,10-35.4,10s-6.4-11.3-22.8-22.2c-9.6-6.5-19.9-12-30.5-16.6c0,0-4.1,20.6,0,37.7
	s7.8,28.9,7.8,28.9s-9.3,9.9-12.2,21.1c-2.7,10.9-4.1,22.1-4.4,33.3c0,7.6,0,24.9,8.3,40c8.3,15.1,16.5,32.2,36.1,41.1
	s47.3,8.7,53.2,8.9S387.4,547.6,396.1,547.5c8.7,0.1,17.1,5.5,51.1,21.2s42.3,12.2,53.3,15.5s20.4,5.1,42.2,10s28.7,6.3,32.2,11.1
	s7.5,13.3,0,18.9c-4.5,3.3-9.9,5.2-15.5,5.5l-16.6,5.5"/>
<line class="st0" x1="405.4" y1="470" x2="495.6" y2="413.8"/>
<line class="st0" x1="410" y1="479.9" x2="513.3" y2="441.9"/>
<line class="st0" x1="423.7" y1="488" x2="524.9" y2="470"/>
<line class="st0" x1="419.2" y1="476.5" x2="520.3" y2="429.2"/>
<line class="st0" x1="405.4" y1="470" x2="498.7" y2="396.8"/>
<line class="st0" x1="324.4" y1="482" x2="181.7" y2="469.1"/>
<line class="st0" x1="328.4" y1="487.9" x2="185.4" y2="496.9"/>
<line class="st0" x1="331" y1="490.4" x2="201.2" y2="551.1"/>
<path class="st0" d="M134.9,394.1"/>
</svg>
