<svg id="Layer_4" data-name="Layer 4" xmlns="http://www.w3.org/2000/svg" xmlns:xlink="http://www.w3.org/1999/xlink" viewBox="0 0 383.81 357.5"><defs><style>.cls-1,.cls-2,.cls-6,.cls-7,.cls-8{fill:none;}.cls-1,.cls-3,.cls-5{stroke:#000;}.cls-1,.cls-2,.cls-3,.cls-5,.cls-6,.cls-7,.cls-8{stroke-miterlimit:10;}.cls-2{stroke:#001701;}.cls-4{fill:#999;}.cls-5{fill:#fff;}.cls-6{stroke:url(#linear-gradient);}.cls-7{stroke:url(#linear-gradient-2);}.cls-8{stroke:url(#linear-gradient-3);}</style><linearGradient id="linear-gradient" x1="802.38" y1="515.31" x2="827.85" y2="515.31" gradientTransform="matrix(1.78, 0.2, 0.5, 1.15, -1363.03, -573.34)" gradientUnits="userSpaceOnUse"><stop offset="0" stop-color="#fff"/><stop offset="1"/></linearGradient><linearGradient id="linear-gradient-2" x1="833.75" y1="432.05" x2="859.22" y2="432.05" gradientTransform="matrix(1.78, -0.25, 0.77, 0.99, -1489.04, -24.97)" xlink:href="#linear-gradient"/><linearGradient id="linear-gradient-3" x1="829.14" y1="573.15" x2="854.61" y2="573.15" gradientTransform="matrix(1.38, -0.8, 0.96, 0.68, -1359.31, 490.33)" xlink:href="#linear-gradient"/></defs><path class="cls-1" d="M562.24,479.24l-28.65-8.72c-1.26-.38-2.52-.71-3.8-1l-26.19-5.9a84.27,84.27,0,0,0-16.13-2l-23-.68a87.32,87.32,0,0,0-15.33.9l-63.26,9.41L381,425.76l-11.11-47-13.25-57.7a18.07,18.07,0,0,0-5.51-9.36l-15.71-14.14-2,1.43a6.68,6.68,0,0,0-2.83,5.45h0a14.35,14.35,0,0,0,2,7.34l1.18,2a36,36,0,0,1,4.3,11l6.18,29.45L351.8,407l5.3,59.83L358.55,485l-.63,1.52a119.54,119.54,0,0,0-8.72,36.78l-.73,9.77c-.3,4-.3,12.86-1.06,20.58a27,27,0,0,1-9.05,17.62L326,582.14l1.82,25.06a26.78,26.78,0,0,1-.13,5.22l-2.05,16.94a12.3,12.3,0,0,0,0,3.15l1.58,12.35h10.47l12-.68v-2.57a3.91,3.91,0,0,0-2.4-3.6l-2.26-1a8.13,8.13,0,0,1-5-8l.3-4.5a61,61,0,0,0,0-8.76c-.11-1.26-.11-4-.09-4.85l.32-7.93v-6l6.06,2.61c17.8,9.54,32.14-10.81,37.47-15l7.26-9.37" transform="translate(-325.07 -296.92)"/><path class="cls-2" d="M562.24,479.24l10.37-3.55c0-4.09,0-8.16-.1-13a50.48,50.48,0,0,1,.73-9.75h0a13.49,13.49,0,0,1,1.37-4l.06-.11a44.68,44.68,0,0,1,10.79-13.23l2.12-1.77a59.76,59.76,0,0,1,11.35-7.27,60.6,60.6,0,0,1,18.83-5.38L620,421" transform="translate(-325.07 -296.92)"/><path class="cls-3" d="M634.94,419.79l.3-1.39a56.57,56.57,0,0,0,1.26-11.89h0a16.19,16.19,0,0,0-.69-4.69l-1.21-4.06a22.67,22.67,0,0,0-1.74-4.23L629.38,387l-2.53,6.46a33,33,0,0,0-1.17,3.61l-.48,1.88a26.73,26.73,0,0,0-.76,9l.61,7.14.66,5.34" transform="translate(-325.07 -296.92)"/><path class="cls-2" d="M620.24,420.46h0a32,32,0,0,1-1.92-17.4l.2-1.2a44.37,44.37,0,0,1,3.65-11.62l6.48-13.72a60.46,60.46,0,0,1,9.51,14.12h0a31.45,31.45,0,0,1,2.69,19.17L639.6,417l11.58-1.32,9.93,1.65-.7-6a22.13,22.13,0,0,1,3.73-15.09l3.92-5.73h0" transform="translate(-325.07 -296.92)"/><path class="cls-2" d="M668.06,391.13l2.39,10.2,1.48,6.35a14.13,14.13,0,0,0,1.21,3.27l1.4,2.71,2.88,6.32,5.72,4.9a22.82,22.82,0,0,0,2.52,1.87l1.71,1.11a24.9,24.9,0,0,1,2.92,2.18l3.06,2.65" transform="translate(-325.07 -296.92)"/><path class="cls-2" d="M371.9,519l3,11.55,5,14.57,9.55,23.61,8.71,14.1a34.52,34.52,0,0,1,3,6.27l9,24.83a29.66,29.66,0,0,1,1,3.6h0a50.18,50.18,0,0,0,7.76,17.9l2.77,4a3.75,3.75,0,0,0,3.1,1.62h.2a4.17,4.17,0,0,1,2.77,1.07l12.88,11.74h26.88a6.3,6.3,0,0,0-1.61-8.14l-2.53-1.95a10.38,10.38,0,0,0-11-1.06l-4.22,2.1-5.15-6.49a64.24,64.24,0,0,1-13.4-32l-3.05-24.59,3.68-.91a61.61,61.61,0,0,0,24.37-12.24l1.84-1.51h0a54.77,54.77,0,0,1,27.54-4.7l1.62.14a77,77,0,0,1,20.3,4.63l11.14,4.18,33.08,15.06,30.39,16.2v14.21a18.4,18.4,0,0,0,1.76,7.85h0a2.54,2.54,0,0,0,2.44,1.45h0a6.18,6.18,0,0,0,4.56-2.41l3-3.88a25.41,25.41,0,0,0,4.75-10.43l.19-.93A17.63,17.63,0,0,0,593.75,594l-24.64-30.59a3.82,3.82,0,0,1-.63-3.61l14.62-42.87,9.62-1.53a47.59,47.59,0,0,0,22.6,17.4h0a43.79,43.79,0,0,0,4.44,1.38l2.44.62a68.44,68.44,0,0,0,16.91,2.12h0a50.55,50.55,0,0,0,20.72-4.45h0a16.15,16.15,0,0,0,5.73-4.33l1.67-2a6.15,6.15,0,0,1,6.53-1.91l2.46.25a20.21,20.21,0,0,0,7.5-.63h0a21.15,21.15,0,0,0,10.89-7.18l2.34-2.92,6.51-8.66,2.35-3.89a15.17,15.17,0,0,0,0-15.64l-2.36-3.92-.1-6.83.1-7.41.4-9.4a32.81,32.81,0,0,0-6.28-20.7h0a28.25,28.25,0,0,0-4.47-4.8h0" transform="translate(-325.07 -296.92)"/><path class="cls-2" d="M529.08,551.82l-2.81,4.68a29.52,29.52,0,0,0-4.2,15.18v2l7,3.19,3.34,22.36q.17,1.11.27,2.22l2,21.85c.16,1.84.25,3.67.25,5.52v5.81a9.43,9.43,0,0,0,4,7.69l8.8,6.28h20.79v-.49a20.35,20.35,0,0,0-3.58-11.52l-1-1.49a6,6,0,0,0-4.51-2.6l-1.25-.09a6.65,6.65,0,0,1-6.14-6.34l-.17-4.14a41.77,41.77,0,0,1,2.14-15.08l5.25-15.58" transform="translate(-325.07 -296.92)"/><path d="M455,476.76l8-4.33a4.77,4.77,0,0,1,5.66.83h0a4.78,4.78,0,0,1-.12,6.88l-14.56,13.59a4.76,4.76,0,0,1-5.47.75l-12.28-6.37a4.78,4.78,0,0,0-5.23.54l-9.47,7.72a4.79,4.79,0,0,1-6.63-.56l-5.83-6.67a4.79,4.79,0,0,1,1-7.15l9.91-6.56a4.85,4.85,0,0,0,1-.93l3.61-4.34c.64-.77-.06-4.48.9-4.74l29.51-4.23a5.08,5.08,0,0,1,1.55-.15l20.6.61" transform="translate(-325.07 -296.92)"/><path d="M351.18,407.18l10.15,3.54a3.17,3.17,0,0,1,1.69,5.2l-.61.67a3.16,3.16,0,0,0,.62,4.75l3.6,2.36a3.16,3.16,0,0,1-.38,5.5l-.9.43a3.17,3.17,0,0,0-.19,5.61l13.12,7.42a3.15,3.15,0,0,1,1.55,3.35l-1.67,8.76a3.16,3.16,0,0,1-5.67,1.25l-2.34-3.24a3.17,3.17,0,0,0-5.55.79h0a3.16,3.16,0,0,1-3,2.1h-1.7c-1.52,0-3.51.43-3.79-1.07l-.24-6.51" transform="translate(-325.07 -296.92)"/><path class="cls-4" d="M369.24,378.28l-8.9-1.52a4.52,4.52,0,0,1-2.51-7.22l1.15-1.46a3.9,3.9,0,0,0-.19-5.09l-2.32-2.49a6.29,6.29,0,0,1-.88-7.32l1.64-2.93-2.46-3.54a7.7,7.7,0,0,1-1.39-4.43v-.85a2.93,2.93,0,0,1,5.13-1.94l2.56,2.91" transform="translate(-325.07 -296.92)"/><path d="M411.67,541.8l5.5,14.79a2.67,2.67,0,0,1-3.81,3.27L409,557.42a2.71,2.71,0,0,0-1.48-.33h0a2.67,2.67,0,0,1-1.53-5l2.25-1.31a2.7,2.7,0,0,0,1.22-1.55l4.63-15.54a2.68,2.68,0,0,1,2.56-1.92H420a2.65,2.65,0,0,1,1.69.61l3.52,2.88a2.69,2.69,0,0,1,.93,2.6l-.66,3.27a2.7,2.7,0,0,0,.84,2.52l3.48,3.12a2.7,2.7,0,0,1,.89,2v3.43a2.64,2.64,0,0,0,.24,1.11l5.19,11.43a2.69,2.69,0,0,1-.9,3.3l-4.69,3.31a2.66,2.66,0,0,1-1.54.49H419a2.56,2.56,0,0,1-1.15-.27L408.31,567a2.91,2.91,0,0,1-.8-.59L402.46,561a2.69,2.69,0,0,0-2.32-.82l-7.66,1-.36,0H390.9a2.68,2.68,0,0,1-2.58-3.39l4-14.38" transform="translate(-325.07 -296.92)"/><path class="cls-4" d="M519.65,518.31l4.71,3,11.21-1.81a3.77,3.77,0,0,1,4.37,3.72v4.88a3.76,3.76,0,0,1-.25,1.36L536.38,538a3.77,3.77,0,0,1-2.78,2.35L518,543.47a3.78,3.78,0,0,1-3.14-.79l-6.17-5.1a3.77,3.77,0,0,0-5.87,1.43l-4,9.41c0,.09-.07.19-.11.28l-2.49,7.46a3.76,3.76,0,0,1-4.32,2.5l-22.14-4.43a3.76,3.76,0,0,1-3-3.09l-3.25-20.07a3.76,3.76,0,0,1,6-3.61h0a3.78,3.78,0,0,0,5.94-2.15l1.77-7.46a3.77,3.77,0,0,1,7.21-.44l3.12,8.46a3.77,3.77,0,0,0,6.6.9l9.53-13.21a3.77,3.77,0,0,1,3.06-1.56h11.66" transform="translate(-325.07 -296.92)"/><path class="cls-3" d="M703.85,481.53l-3.7,2.48a9.49,9.49,0,0,0-4,6h0a7.12,7.12,0,0,0,1.06,5.39l.63.93a17,17,0,0,0,2.73,3.14l4.3,3.89,2.76-5.29.79-5.63-2.17-7Z" transform="translate(-325.07 -296.92)"/><ellipse class="cls-1" cx="662.22" cy="460.33" rx="4.79" ry="11.88" transform="translate(-261.84 703.47) rotate(-76.84)"/><circle class="cls-3" cx="337.15" cy="163.42" r="4.74"/><path class="cls-1" d="M702.89,463.25l-.33.08a8.93,8.93,0,0,1-4.94,1.48h-1.46a2.92,2.92,0,0,1-2.28-1.06h0a2.51,2.51,0,0,1,0-3.13h0c.53-1.09,1.55-1.85,4.44-3.17l4.61-1.59v7.39l-.38,1-1.54-.39-.74-1.19-.38-1.62v-1.44h0a3.77,3.77,0,0,1,1.26-2.2l1.78-1.55" transform="translate(-325.07 -296.92)"/><path class="cls-1" d="M693.88,517.55l-3-.83a37,37,0,0,1-6.71-2.7l-.07,0a6.73,6.73,0,0,1-2.93-8.39h0" transform="translate(-325.07 -296.92)"/><polygon class="cls-1" points="377.1 160.42 376.04 160.5 377.1 162.53 377.82 161.43 377.1 160.42"/><path class="cls-1" d="M702.28,458.05v0Z" transform="translate(-325.07 -296.92)"/><polyline class="cls-1" points="377.48 166.42 375.46 166.25 375.15 164.56 377.82 164.56 377.2 165.8 376.04 165.49 375.63 165.18"/><polyline class="cls-1" points="376.93 165.04 377.07 163.96 377.2 162.94 376.2 161.53 375.72 161.47 375.34 162.53 375.34 163.26 375.34 164.09 376.04 164.09 376.49 163.09 376.04 162.13 376.04 163.04"/><circle class="cls-5" cx="339.97" cy="162.27" r="1.14"/><line class="cls-6" x1="372.67" y1="192.08" x2="321.76" y2="172.57"/><line class="cls-7" x1="374.29" y1="195.72" x2="320.13" y2="189.46"/><line class="cls-8" x1="375.15" y1="198.32" x2="328.56" y2="209.86"/></svg>