<svg id="Layer_3" data-name="Layer 3" xmlns="http://www.w3.org/2000/svg" xmlns:xlink="http://www.w3.org/1999/xlink" viewBox="0 0 393.56 364.78"><defs><style>.cls-1{fill:#999;}.cls-2,.cls-3,.cls-4,.cls-7,.cls-8,.cls-9{fill:none;}.cls-2,.cls-5,.cls-6{stroke:#000;}.cls-2,.cls-3,.cls-4,.cls-5,.cls-6,.cls-7,.cls-8,.cls-9{stroke-miterlimit:10;}.cls-3{stroke:url(#linear-gradient);}.cls-4{stroke:#001701;}.cls-6{fill:#fff;}.cls-7{stroke:url(#linear-gradient-2);}.cls-8{stroke:url(#linear-gradient-3);}.cls-9{stroke:url(#linear-gradient-4);}</style><linearGradient id="linear-gradient" x1="393.57" y1="207.68" x2="392.55" y2="207.75" gradientUnits="userSpaceOnUse"><stop offset="0" stop-color="#fff"/><stop offset="1"/></linearGradient><linearGradient id="linear-gradient-2" x1="1036.63" y1="485.58" x2="1062.1" y2="485.58" gradientTransform="matrix(1.78, 0.2, 0.5, 1.15, -1766.69, -587.47)" xlink:href="#linear-gradient"/><linearGradient id="linear-gradient-3" x1="1032.17" y1="493.34" x2="1057.65" y2="493.34" gradientTransform="matrix(1.78, -0.25, 0.77, 0.99, -1892.7, -39.1)" xlink:href="#linear-gradient"/><linearGradient id="linear-gradient-4" x1="981.73" y1="771.57" x2="1007.2" y2="771.57" gradientTransform="matrix(1.38, -0.8, 0.96, 0.68, -1762.97, 476.21)" xlink:href="#linear-gradient"/></defs><path class="cls-1" d="M936.38,531.53l4.71,3,11.21-1.8a3.77,3.77,0,0,1,4.37,3.72v4.88a3.67,3.67,0,0,1-.25,1.35l-3.3,8.6a3.77,3.77,0,0,1-2.78,2.34l-15.57,3.12a3.81,3.81,0,0,1-3.15-.79l-6.17-5.11a3.77,3.77,0,0,0-5.87,1.43l-4,9.41c0,.1-.08.19-.11.29l-2.5,7.46a3.77,3.77,0,0,1-4.31,2.5l-22.15-4.43a3.77,3.77,0,0,1-3-3.09l-3.25-20.07a3.77,3.77,0,0,1,6-3.62h0a3.77,3.77,0,0,0,5.93-2.14l1.77-7.47a3.77,3.77,0,0,1,7.21-.43l3.12,8.45a3.77,3.77,0,0,0,6.6.9l9.53-13.2a3.78,3.78,0,0,1,3.06-1.56h11.67" transform="translate(-728.73 -311.04)"/><path d="M858,490.88l8.05-4.33a4.78,4.78,0,0,1,5.65.83h0a4.79,4.79,0,0,1-.11,6.89l-14.56,13.58a4.78,4.78,0,0,1-5.48.75l-12.28-6.37a4.78,4.78,0,0,0-5.23.54l-9.47,7.72a4.78,4.78,0,0,1-6.63-.56l-5.83-6.67a4.79,4.79,0,0,1,1-7.14l9.91-6.57a4.85,4.85,0,0,0,1-.93l3.61-4.34c.64-.77-.06-4.48.9-4.73l29.52-4.24a4.69,4.69,0,0,1,1.54-.14l20.61.6" transform="translate(-728.73 -311.04)"/><path d="M803.32,558.6l5.51,14.78a2.67,2.67,0,0,1-3.81,3.27l-4.39-2.44a2.73,2.73,0,0,0-1.48-.33h0a2.67,2.67,0,0,1-1.53-5l2.25-1.31a2.7,2.7,0,0,0,1.22-1.55l4.63-15.54a2.67,2.67,0,0,1,2.56-1.92h3.4a2.7,2.7,0,0,1,1.69.61l3.52,2.89a2.66,2.66,0,0,1,.93,2.59l-.66,3.28a2.69,2.69,0,0,0,.84,2.51l3.48,3.12a2.7,2.7,0,0,1,.89,2V569a2.74,2.74,0,0,0,.23,1.1l5.2,11.43a2.69,2.69,0,0,1-.9,3.3l-4.69,3.31a2.66,2.66,0,0,1-1.54.49h-10a2.56,2.56,0,0,1-1.15-.27L800,583.78a2.88,2.88,0,0,1-.8-.58l-5-5.4a2.69,2.69,0,0,0-2.32-.82L784.14,578l-.36,0h-1.22a2.68,2.68,0,0,1-2.58-3.39l4-14.38" transform="translate(-728.73 -311.04)"/><path d="M753.58,407.18l10.15,3.54a3.17,3.17,0,0,1,1.69,5.2l-.6.67a3.16,3.16,0,0,0,.62,4.75L769,423.7a3.17,3.17,0,0,1-.37,5.5l-.9.43a3.16,3.16,0,0,0-.19,5.61l13.12,7.42a3.17,3.17,0,0,1,1.55,3.35l-1.68,8.76a3.16,3.16,0,0,1-5.67,1.25l-2.34-3.24a3.16,3.16,0,0,0-5.54.79h0a3.17,3.17,0,0,1-3,2.1h-1.71c-1.52,0-3.5.43-3.78-1.07l-.25-6.51" transform="translate(-728.73 -311.04)"/><path class="cls-1" d="M770.34,378.28l-8.9-1.52a4.52,4.52,0,0,1-2.51-7.22l1.15-1.46a3.91,3.91,0,0,0-.19-5.09l-2.32-2.49a6.27,6.27,0,0,1-.88-7.32l1.63-2.93-2.46-3.54a7.78,7.78,0,0,1-1.39-4.43v-.85a2.94,2.94,0,0,1,5.14-1.94l2.56,2.91" transform="translate(-728.73 -311.04)"/><path class="cls-2" d="M820.36,595.25,820.9,606l-.58,5.91a23.69,23.69,0,0,1-3.7,10.57L814.35,626l-5,5.3,2.7,7,3.06,9.23a23,23,0,0,0,3.55,6.73l5,6.6,3.2-.44a8.89,8.89,0,0,1,7.41,2.41l1.56,1.5a9.72,9.72,0,0,1,2.9,8.26l-.09.75-19,2-11.86-9.57L794.06,642.4a23.38,23.38,0,0,1-3.06-9.1l-.46-3.86.52-29.54L775.6,572,769,552.84l-1.15-3.32a64.88,64.88,0,0,1-3.3-15.52l-1-11.36,1.12-14.45" transform="translate(-728.73 -311.04)"/><path class="cls-2" d="M902.66,585.15l16.43,7.32,6.91.37a24.53,24.53,0,0,0,7.53-.76l.05,0a17.77,17.77,0,0,0,9.1-5.77l3.52-4.21-2.7-13.16,5.56,22.51v6.93a31.41,31.41,0,0,1-3.57,14.53l-4.15,7.93-12.46,25.32h0a12.32,12.32,0,0,0,9.89,7.31h0a3.18,3.18,0,0,1,2,1.06l3.45,4a3.58,3.58,0,0,1-.88,5.41l-2,1.2-5.19,1.67a18.07,18.07,0,0,1-12.22-.42l-1.73-.69a14.07,14.07,0,0,1-7.79-7.64h0a15.68,15.68,0,0,1-1.21-6.12l.09-10.73c0-1.74.1-3.48.27-5.21l1.51-15.81,1.16-8.69a67.66,67.66,0,0,1,1.3-6.93l2.8-11.54-17.67-7.84-26.34-.83H852.21l-20.13,2.24a7.05,7.05,0,0,0-4,1.85l-7.84,7.25" transform="translate(-728.73 -311.04)"/><path class="cls-2" d="M966,493.36l-28.65-8.71c-1.25-.38-2.52-.72-3.8-1L904.18,477a51.48,51.48,0,0,0-9.67-1.22l-34-1-70.88,10.53-4.83-45.44-11.11-47-13.25-57.7a18.07,18.07,0,0,0-5.51-9.36l-15.71-14.14-2,1.42a6.69,6.69,0,0,0-2.83,5.46h0a14.38,14.38,0,0,0,2,7.34l1.18,2a35.63,35.63,0,0,1,4.3,11l6.18,29.46,7.52,52.7,5.3,59.84,1.45,18.23-.63,1.53A119.48,119.48,0,0,0,753,537.45l-.73,9.77a37,37,0,0,1-6.8,18.77l-16.19,22.65,2.56,35.3,4,27.35,5.7,7.7h3.42l1.71-4.85-.29-10.82-1.83-10.08a25,25,0,0,1-.4-5l.24-11.18v-6l8.28-1.27a39.15,39.15,0,0,0,18.35-8l15.47-12.24" transform="translate(-728.73 -311.04)"/><path class="cls-2" d="M950.15,596l16.35,11.82a3.77,3.77,0,0,0,.54.34l23.73,13.17,17.68,9a5.46,5.46,0,0,1,2.26,2.18l11.94,21.42a5.42,5.42,0,0,0,2.81,2.42h0a5.42,5.42,0,0,0,5-.62l1.56-1.09a5.4,5.4,0,0,0,2.3-4.42V641a5.39,5.39,0,0,0-.39-2l-3-7.31a5.2,5.2,0,0,0-1-1.63L1011,609.63l-.22-.23L992.52,592a5.39,5.39,0,0,1-.77-6.86l.39-.59a19.08,19.08,0,0,0,3.14-11.07h0a29.45,29.45,0,0,0-1.63-8.82L992.37,561a5.84,5.84,0,0,1-.22-.82l-5.27-29.06h0" transform="translate(-728.73 -311.04)"/><line class="cls-3" x1="393.06" y1="207.57" x2="393.06" y2="207.86"/><path class="cls-4" d="M1096.89,446.69h0a28.25,28.25,0,0,1,4.47,4.8h0a32.75,32.75,0,0,1,6.28,20.7l-.4,9.41-.1,7.4.1,6.83,2.36,3.92a15.17,15.17,0,0,1,0,15.64l-2.35,3.89-6.51,8.66-2.33,2.92a21.22,21.22,0,0,1-10.9,7.18h0a20.21,20.21,0,0,1-7.5.63l-2.46-.25a6.13,6.13,0,0,0-6.52,1.91l-1.68,2a16,16,0,0,1-5.73,4.33h0a50.55,50.55,0,0,1-20.72,4.45h0A68.44,68.44,0,0,1,1026,549l-2.44-.62a46.42,46.42,0,0,1-4.44-1.37h0a47.72,47.72,0,0,1-22.6-17.41l-9.62,1.53" transform="translate(-728.73 -311.04)"/><path class="cls-4" d="M1023.78,435.07h0a32,32,0,0,1-1.92-17.4l.2-1.19a44,44,0,0,1,3.65-11.63l6.48-13.72a61.3,61.3,0,0,1,9.51,14.12h0a31.45,31.45,0,0,1,2.69,19.17l-1.26,7.19,11.59-1.32,9.93,1.65-.7-6a22.1,22.1,0,0,1,3.73-15.1l3.92-5.73h0" transform="translate(-728.73 -311.04)"/><path class="cls-4" d="M966,493.36l10.38-3.54c0-4.1,0-8.17-.11-13a50.6,50.6,0,0,1,.73-9.75h0a13.59,13.59,0,0,1,1.37-4l.06-.11a44.81,44.81,0,0,1,10.79-13.23l2.12-1.77a57,57,0,0,1,30.18-12.65l2.25-.27" transform="translate(-728.73 -311.04)"/><path class="cls-5" d="M1107.24,495.16l-3.7,2.48a9.48,9.48,0,0,0-4,6h0a7.11,7.11,0,0,0,1.06,5.38l.63.93a17.07,17.07,0,0,0,2.73,3.15l4.29,3.88,2.77-5.29.79-5.62-2.17-7Z" transform="translate(-728.73 -311.04)"/><ellipse class="cls-2" cx="1069.25" cy="475.95" rx="4.79" ry="11.88" transform="translate(-366.33 1097.75) rotate(-76.84)"/><circle class="cls-5" cx="340.52" cy="164.91" r="4.74"/><ellipse class="cls-6" cx="342.81" cy="163.58" rx="1.23" ry="1.05"/><path class="cls-2" d="M1107.13,480.62l-.34.09a9,9,0,0,1-4.93,1.47h-1.47a2.9,2.9,0,0,1-2.27-1.06h0a2.51,2.51,0,0,1,0-3.13h0c.54-1.08,1.55-1.85,4.44-3.17l4.62-1.59v7.39l-.38,1-1.54-.39-.74-1.19-.38-1.62V477h0a3.77,3.77,0,0,1,1.26-2.2l1.78-1.55" transform="translate(-728.73 -311.04)"/><polyline class="cls-2" points="378.32 164.03 377.85 163.43 378.09 162.75 378.32 162.36 378.32 162.19 377.07 163.96 377.07 164.79 377.27 165.92 377.65 167.39 378.1 166.71 378.11 166.04 377.84 165.11 377.7 164.19 377.7 164.08 377.64 163.85 378.41 164.18"/><path class="cls-2" d="M1097.41,532.38l-3-.83a37,37,0,0,1-6.71-2.7l-.07,0a6.73,6.73,0,0,1-2.93-8.39h0" transform="translate(-728.73 -311.04)"/><line class="cls-7" x1="372.08" y1="191.16" x2="321.17" y2="171.65"/><line class="cls-8" x1="370.42" y1="193.1" x2="316.26" y2="186.84"/><line class="cls-9" x1="372.61" y1="196.78" x2="326.02" y2="208.31"/><path class="cls-4" d="M1081,435.74" transform="translate(-728.73 -311.04)"/><path class="cls-4" d="M1071.6,405.13l2.39,10.2,1.48,6.35a13.53,13.53,0,0,0,1.21,3.27l1.4,2.71L1081,434l5.72,4.9a24.25,24.25,0,0,0,2.52,1.88l1.71,1.1a27,27,0,0,1,2.92,2.18l3.06,2.65" transform="translate(-728.73 -311.04)"/><path class="cls-5" d="M1038.45,433.18l.29-1.39A56.64,56.64,0,0,0,1040,419.9h0a16.52,16.52,0,0,0-.68-4.69l-1.22-4.07a23.24,23.24,0,0,0-1.74-4.23l-3.47-6.53-2.53,6.45a31.2,31.2,0,0,0-1.18,3.62l-.48,1.87a27,27,0,0,0-.76,9l.61,7.15.67,5.34" transform="translate(-728.73 -311.04)"/><polyline class="cls-2" points="378.06 169.66 376.76 168.87 377.74 168.53 377.15 167.39 376.76 166.66 375.9 165.89 376.34 167.58 376.76 168.87 376.34 167.58 376.51 165.44 378.4 162.91"/><polyline class="cls-2" points="376.62 163.74 377.07 169.65 376.62 169.36"/></svg>