<svg id="Layer_4" data-name="Layer 4" xmlns="http://www.w3.org/2000/svg" xmlns:xlink="http://www.w3.org/1999/xlink" viewBox="0 0 377.6 375.73"><defs><style>.cls-1,.cls-2,.cls-5,.cls-6,.cls-7{fill:none;}.cls-1,.cls-4{stroke:#000;}.cls-1,.cls-2,.cls-4,.cls-5,.cls-6,.cls-7{stroke-miterlimit:10;}.cls-2{stroke:#001701;}.cls-3{fill:#999;}.cls-5{stroke:url(#linear-gradient);}.cls-6{stroke:url(#linear-gradient-2);}.cls-7{stroke:url(#linear-gradient-3);}</style><linearGradient id="linear-gradient" x1="813.06" y1="524.15" x2="838.54" y2="524.15" gradientTransform="matrix(1.78, 0.2, 0.5, 1.15, -1391.27, -586.4)" gradientUnits="userSpaceOnUse"><stop offset="0" stop-color="#fff"/><stop offset="1"/></linearGradient><linearGradient id="linear-gradient-2" x1="839.1" y1="445.36" x2="864.57" y2="445.36" gradientTransform="matrix(1.78, -0.25, 0.77, 0.99, -1517.28, -38.04)" xlink:href="#linear-gradient"/><linearGradient id="linear-gradient-3" x1="829.35" y1="592.4" x2="854.83" y2="592.4" gradientTransform="matrix(1.38, -0.8, 0.96, 0.68, -1387.55, 477.27)" xlink:href="#linear-gradient"/></defs><path class="cls-1" d="M384.78,520.87l-.55,5.37a91.37,91.37,0,0,0,0,18.56l.55,5.37h0a155.1,155.1,0,0,0,8,28.54l4.09,10.53-4.46,8.94c-1.13,1.86-2.18,3.45-3.21,4.82a13.09,13.09,0,0,1-18.87,2h0l9.81,9.47a24.86,24.86,0,0,1,3.45,4.14l4.43,6.71a12.59,12.59,0,0,1,2.09,6.94v.12a21.38,21.38,0,0,1-4.32,12.9l-2,2.71a1.44,1.44,0,0,1-2.21.11l-1.72-1.83V640.1a11.06,11.06,0,0,0-2.68-7.22l-8.87-10.3-11.76-13h0a12.86,12.86,0,0,1-2.49-9.72h0a5.37,5.37,0,0,1,1.11-2.55l16.44-20.95c3.94-5.51-.4-24.44.1-31.2l.73-9.77a119.55,119.55,0,0,1,8.72-36.77l.63-1.53-1.45-18.23L375,419l-7.52-52.71-6.17-29.46a36.23,36.23,0,0,0-4.3-11l-1.19-2a14.37,14.37,0,0,1-2-7.34h0a6.7,6.7,0,0,1,2.82-5.46h0a3.1,3.1,0,0,1,3.85.23l13.88,12.49a18.07,18.07,0,0,1,5.51,9.36l13.25,57.7,11.11,47,4.83,45.44L480,472.74l28.46.84a109.24,109.24,0,0,1,20.61,2.6l24,5.41c1.27.29,2.54.62,3.79,1l28.65,8.71" transform="translate(-353.32 -309.98)"/><path class="cls-1" d="M396.88,589.24l4.29,7.08a13.14,13.14,0,0,1,1.06,11.47l-3.9,10.29a1.88,1.88,0,0,0-.11.62h0a32.94,32.94,0,0,1-2.08,11.54l-2.28,6.1a9.22,9.22,0,0,0,.08,6.64h0a35.81,35.81,0,0,0,4.78,8.43l24.83,32.65,20.4,1.12v-5.64a9.38,9.38,0,0,0-1.62-5.26l-.16-.24a10.65,10.65,0,0,0-6.82-4.48l-5.08-1L420,650.72a15,15,0,0,1-.4-14.24l16.08-32,3.59-7,1.58.79a19.68,19.68,0,0,0,15.2,1h0a75.83,75.83,0,0,1,12-3.05h0c4.73-.8,4.73-.8,18.5-4.24l38.08-8.12-2.64,27.9c-.14,1.54-.31,3.07-.53,4.59L519,633.35a83.44,83.44,0,0,0-.84,11.81v3.52a30.78,30.78,0,0,0,5.45,22.38l.16.22,20,6.73h0a14.89,14.89,0,0,0-1.28-13.68l-.56-.87a4.65,4.65,0,0,0-4.89-2h0a3,3,0,0,1-3.17-4.59L541,645.73l11.13-26.13a62.47,62.47,0,0,0,5-24.53h0l-26.88-10.82a9,9,0,0,0-5.69-.33h0" transform="translate(-353.32 -309.98)"/><path class="cls-2" d="M584.33,491.54,594.7,488c0-4.1,0-8.17-.1-13a50.6,50.6,0,0,1,.73-9.75h0a13.59,13.59,0,0,1,1.37-4l.06-.11a44.94,44.94,0,0,1,10.79-13.23l2.12-1.77a57.07,57.07,0,0,1,30.18-12.64l2.25-.28" transform="translate(-353.32 -309.98)"/><path class="cls-2" d="M642.37,433.64h0a32.05,32.05,0,0,1-1.93-17.4l.2-1.2a44.82,44.82,0,0,1,3.65-11.63l6.48-13.72a60.73,60.73,0,0,1,9.51,14.13h0A31.5,31.5,0,0,1,663,423l-1.26,7.2,11.58-1.33,9.93,1.66-.7-6a22.16,22.16,0,0,1,3.73-15.1l3.93-5.72h0" transform="translate(-353.32 -309.98)"/><path class="cls-2" d="M690.19,403.23l2.38,10.2,1.48,6.36a14.3,14.3,0,0,0,1.21,3.27l1.41,2.7,2.88,6.33,5.71,4.89a22.11,22.11,0,0,0,2.53,1.88l1.71,1.1a26.78,26.78,0,0,1,2.92,2.19l3.05,2.64" transform="translate(-353.32 -309.98)"/><polyline class="cls-1" points="203.82 285.09 216.42 281.77 232.13 279.27 232.13 266.8"/><path class="cls-2" d="M585.45,589.24v6.06a56,56,0,0,0,.83,9.58h0a24.73,24.73,0,0,0,7.41,13.76h0a63,63,0,0,0,9,7.05l26.62,17.24L664,669h10.85a7.25,7.25,0,0,0,6-3.15l1.13-1.64-2.27-3.57a20.25,20.25,0,0,0-11.16-8.49L661,649.81l-4.31-7.55a40.14,40.14,0,0,0-7.06-9.08l-26-25.1a8.22,8.22,0,0,1-1.5-9.87l6-11a.57.57,0,0,0,.07-.22h0a39.38,39.38,0,0,0-2.44-19.86l-2.57-6.43-17.72-31.52,9.62-1.53a47.65,47.65,0,0,0,22.6,17.41h0q2.19.79,4.44,1.38l2.44.62a68.9,68.9,0,0,0,16.91,2.11h0a50.54,50.54,0,0,0,20.72-4.44h0a16.18,16.18,0,0,0,5.73-4.34l1.68-2a6.13,6.13,0,0,1,6.52-1.92l2.46.25a20.19,20.19,0,0,0,7.5-.63h0A21.16,21.16,0,0,0,717,529l2.33-2.92,6.51-8.66,2.35-3.89a15.15,15.15,0,0,0,0-15.63l-2.36-3.92-.1-6.84.1-7.4.4-9.41a32.75,32.75,0,0,0-6.28-20.7h0a28.25,28.25,0,0,0-4.47-4.8h0" transform="translate(-353.32 -309.98)"/><path class="cls-3" d="M536.85,539.82l4.71,3L552.77,541a3.77,3.77,0,0,1,4.37,3.73v4.87a3.69,3.69,0,0,1-.25,1.36l-3.31,8.6a3.76,3.76,0,0,1-2.78,2.34L535.23,565a3.72,3.72,0,0,1-3.14-.79l-6.17-5.1a3.77,3.77,0,0,0-5.87,1.43l-4,9.41c0,.09-.07.19-.11.28l-2.49,7.46a3.77,3.77,0,0,1-4.32,2.51L487,575.75a3.78,3.78,0,0,1-3-3.1l-3.25-20.06a3.77,3.77,0,0,1,6-3.62h0a3.78,3.78,0,0,0,5.94-2.15l1.77-7.46a3.77,3.77,0,0,1,7.21-.44l3.12,8.46a3.77,3.77,0,0,0,6.6.9l9.53-13.2a3.75,3.75,0,0,1,3.06-1.57h11.66" transform="translate(-353.32 -309.98)"/><path d="M477.49,489.06l8.05-4.33a4.79,4.79,0,0,1,5.66.83h0a4.79,4.79,0,0,1-.12,6.89L476.52,506a4.76,4.76,0,0,1-5.47.75l-12.28-6.37a4.78,4.78,0,0,0-5.23.54l-9.47,7.72a4.78,4.78,0,0,1-6.63-.56l-5.83-6.67a4.78,4.78,0,0,1,1-7.14l9.91-6.57a4.57,4.57,0,0,0,1-.93l3.62-4.34c.63-.77-.06-4.48.9-4.73l29.51-4.24a4.69,4.69,0,0,1,1.54-.14l20.61.6" transform="translate(-353.32 -309.98)"/><path d="M373,404.72l10.14,3.54a3.16,3.16,0,0,1,1.69,5.2l-.6.67a3.16,3.16,0,0,0,.62,4.75l3.59,2.37a3.16,3.16,0,0,1-.37,5.49l-.9.43a3.16,3.16,0,0,0-.19,5.61l13.12,7.42a3.16,3.16,0,0,1,1.55,3.35L400,452.31a3.17,3.17,0,0,1-5.68,1.25L392,450.32a3.17,3.17,0,0,0-5.55.79h0a3.16,3.16,0,0,1-3,2.1h-1.7c-1.53,0-3.51.43-3.79-1.07l-.25-6.51" transform="translate(-353.32 -309.98)"/><path class="cls-3" d="M387.37,368.52l-8.9-1.52a4.53,4.53,0,0,1-2.51-7.23l1.15-1.45a3.9,3.9,0,0,0-.19-5.09l-2.32-2.5a6.27,6.27,0,0,1-.88-7.31l1.64-2.94L372.9,337a7.73,7.73,0,0,1-1.39-4.43v-.86a2.93,2.93,0,0,1,5.13-1.93l2.57,2.91" transform="translate(-353.32 -309.98)"/><path d="M420.66,550.21,426.17,565a2.68,2.68,0,0,1-3.81,3.27L418,565.83a2.65,2.65,0,0,0-1.48-.34h0a2.67,2.67,0,0,1-1.53-5l2.25-1.31a2.67,2.67,0,0,0,1.22-1.55l4.62-15.54a2.68,2.68,0,0,1,2.57-1.91H429a2.69,2.69,0,0,1,1.7.6l3.52,2.89a2.68,2.68,0,0,1,.93,2.59l-.66,3.28a2.67,2.67,0,0,0,.84,2.51l3.47,3.12a2.68,2.68,0,0,1,.89,2v3.43a2.75,2.75,0,0,0,.24,1.1l5.19,11.44a2.66,2.66,0,0,1-.89,3.29l-4.69,3.31a2.66,2.66,0,0,1-1.54.49H428a2.73,2.73,0,0,1-1.16-.26l-9.57-4.6a2.69,2.69,0,0,1-.8-.58l-5.06-5.4a2.66,2.66,0,0,0-2.31-.82l-7.66,1.06-.36,0H399.9a2.67,2.67,0,0,1-2.58-3.39l4-14.38" transform="translate(-353.32 -309.98)"/><path class="cls-4" d="M656.37,431.59l.3-1.39a56.57,56.57,0,0,0,1.26-11.89h0a16.19,16.19,0,0,0-.69-4.69L656,409.55a23.24,23.24,0,0,0-1.74-4.23l-3.48-6.53-2.53,6.46a32.33,32.33,0,0,0-1.17,3.61l-.48,1.88a26.71,26.71,0,0,0-.76,9l.6,7.14.67,5.34" transform="translate(-353.32 -309.98)"/><path class="cls-4" d="M725.88,494.22l-3.7,2.48a9.49,9.49,0,0,0-4,6h0a7.09,7.09,0,0,0,1.06,5.38l.63.94a17,17,0,0,0,2.73,3.14l4.29,3.89,2.77-5.29.79-5.63-2.17-7Z" transform="translate(-353.32 -309.98)"/><ellipse class="cls-1" cx="687.25" cy="473.72" rx="4.79" ry="11.88" transform="translate(-283.78 725.12) rotate(-76.84)"/><circle class="cls-4" cx="333.94" cy="163.74" r="4.74"/><path class="cls-1" d="M726,476.63l-.34.09a8.93,8.93,0,0,1-4.94,1.48h-1.46a3,3,0,0,1-2.28-1.06h0a2.52,2.52,0,0,1,0-3.13h0c.54-1.09,1.55-1.85,4.44-3.17l4.62-1.6v7.39l-.38,1-1.54-.39-.74-1.19-.39-1.63V473h0a3.79,3.79,0,0,1,1.27-2.19l1.78-1.56" transform="translate(-353.32 -309.98)"/><polyline class="cls-1" points="372.47 160.55 371.53 160.55 372.29 162 370.29 162.57 370.89 160.82 371.66 161.87 372.47 163.39 369.82 163.74"/><polyline class="cls-1" points="370.13 162.86 371.15 163.07 371.89 162.73 372.29 165.12 372.29 166.17 371.66 166.83 371.15 166.83 370.71 166.44 370.45 165.96 371.74 165.36 371.71 166.22 371.45 166.28 371.21 166.17 371.37 164.18 371.15 163.74 370.26 163.68 370.61 165.65"/><line class="cls-5" x1="367.88" y1="191.32" x2="316.97" y2="171.81"/><line class="cls-6" x1="365.76" y1="194.48" x2="311.6" y2="188.22"/><line class="cls-7" x1="365.73" y1="198.21" x2="319.13" y2="209.75"/><path class="cls-1" d="M713,533.51l-3-.82a37,37,0,0,1-6.71-2.7l-.07,0a6.73,6.73,0,0,1-2.93-8.39h0" transform="translate(-353.32 -309.98)"/></svg>